<?xml version="1.0" encoding="UTF-8"?>
<svg xmlns="http://www.w3.org/2000/svg" xmlns:xlink="http://www.w3.org/1999/xlink" stroke-dasharray="none" shape-rendering="auto" font-family="'Dialog'" width="576" text-rendering="auto" fill-opacity="1" contentScriptType="text/ecmascript" color-interpolation="auto" color-rendering="auto" preserveAspectRatio="xMidYMid meet" font-size="12" fill="black" stroke="black" image-rendering="auto" stroke-miterlimit="10" zoomAndPan="magnify" version="1.0" stroke-linecap="square" stroke-linejoin="miter" contentStyleType="text/css" font-style="normal" height="432" stroke-width="1" stroke-dashoffset="0" font-weight="normal" stroke-opacity="1">
<!--Generated by the Batik Graphics2D SVG Generator-->
<defs id="genericDefs"/>
<g>
<defs id="defs1">
<clipPath clipPathUnits="userSpaceOnUse" id="clipPath1">
<path d="M31 29 L556 29 L556 403 L31 403 L31 29 Z"/>
</clipPath>
<clipPath clipPathUnits="userSpaceOnUse" id="clipPath2">
<path d="M-1 -1 L577 -1 L577 433 L-1 433 L-1 -1 Z"/>
</clipPath>
<clipPath clipPathUnits="userSpaceOnUse" id="clipPath3">
<path d="M36 34 L327 34 L327 138 L36 138 L36 34 Z"/>
</clipPath>
</defs>
<g font-size="13" fill="white" text-rendering="geometricPrecision" font-family="'Lucida Grande'" stroke-linejoin="round" stroke="white" stroke-width="0" stroke-miterlimit="0">
<rect x="32" y="30" clip-path="url(#clipPath1)" width="523" height="372" stroke="none"/>
</g>
<g font-size="13" stroke-linecap="butt" fill="rgb(204,204,204)" text-rendering="geometricPrecision" font-family="'Lucida Grande'" stroke-dasharray="3,3" stroke="rgb(204,204,204)">
<line clip-path="url(#clipPath1)" fill="none" x1="37" x2="37" y1="30" y2="402"/>
<line clip-path="url(#clipPath1)" fill="none" x1="94" x2="94" y1="30" y2="402"/>
<line clip-path="url(#clipPath1)" fill="none" x1="151" x2="151" y1="30" y2="402"/>
<line clip-path="url(#clipPath1)" fill="none" x1="208" x2="208" y1="30" y2="402"/>
<line clip-path="url(#clipPath1)" fill="none" x1="265" x2="265" y1="30" y2="402"/>
<line clip-path="url(#clipPath1)" fill="none" x1="321" x2="321" y1="30" y2="402"/>
<line clip-path="url(#clipPath1)" fill="none" x1="378" x2="378" y1="30" y2="402"/>
<line clip-path="url(#clipPath1)" fill="none" x1="435" x2="435" y1="30" y2="402"/>
<line clip-path="url(#clipPath1)" fill="none" x1="492" x2="492" y1="30" y2="402"/>
<line clip-path="url(#clipPath1)" fill="none" x1="549" x2="549" y1="30" y2="402"/>
<line clip-path="url(#clipPath1)" fill="none" x1="32" x2="555" y1="402" y2="402"/>
<line clip-path="url(#clipPath1)" fill="none" x1="32" x2="555" y1="330" y2="330"/>
<line clip-path="url(#clipPath1)" fill="none" x1="32" x2="555" y1="258" y2="258"/>
<line clip-path="url(#clipPath1)" fill="none" x1="32" x2="555" y1="186" y2="186"/>
<line clip-path="url(#clipPath1)" fill="none" x1="32" x2="555" y1="114" y2="114"/>
<line clip-path="url(#clipPath1)" fill="none" x1="32" x2="555" y1="42" y2="42"/>
<rect x="35" y="366" clip-path="url(#clipPath1)" fill="rgb(0,0,139)" width="5" height="5" stroke="none"/>
<line clip-path="url(#clipPath1)" fill="none" x1="37" x2="94" y1="368" y2="329" stroke-dasharray="none" stroke="rgb(0,0,139)"/>
<rect x="92" y="327" clip-path="url(#clipPath1)" fill="rgb(0,0,139)" width="5" stroke-dasharray="none" height="5" stroke="none"/>
<line clip-path="url(#clipPath1)" fill="none" x1="94" x2="151" y1="329" y2="299" stroke-dasharray="none" stroke="rgb(0,0,139)"/>
<rect x="149" y="297" clip-path="url(#clipPath1)" fill="rgb(0,0,139)" width="5" stroke-dasharray="none" height="5" stroke="none"/>
<line clip-path="url(#clipPath1)" fill="none" x1="151" x2="208" y1="299" y2="269" stroke-dasharray="none" stroke="rgb(0,0,139)"/>
<rect x="206" y="267" clip-path="url(#clipPath1)" fill="rgb(0,0,139)" width="5" stroke-dasharray="none" height="5" stroke="none"/>
<line clip-path="url(#clipPath1)" fill="none" x1="208" x2="265" y1="269" y2="237" stroke-dasharray="none" stroke="rgb(0,0,139)"/>
<rect x="263" y="235" clip-path="url(#clipPath1)" fill="rgb(0,0,139)" width="5" stroke-dasharray="none" height="5" stroke="none"/>
<line clip-path="url(#clipPath1)" fill="none" x1="265" x2="321" y1="237" y2="207" stroke-dasharray="none" stroke="rgb(0,0,139)"/>
<rect x="319" y="205" clip-path="url(#clipPath1)" fill="rgb(0,0,139)" width="5" stroke-dasharray="none" height="5" stroke="none"/>
<line clip-path="url(#clipPath1)" fill="none" x1="321" x2="378" y1="207" y2="176" stroke-dasharray="none" stroke="rgb(0,0,139)"/>
<rect x="376" y="174" clip-path="url(#clipPath1)" fill="rgb(0,0,139)" width="5" stroke-dasharray="none" height="5" stroke="none"/>
<line clip-path="url(#clipPath1)" fill="none" x1="378" x2="435" y1="176" y2="161" stroke-dasharray="none" stroke="rgb(0,0,139)"/>
<rect x="433" y="159" clip-path="url(#clipPath1)" fill="rgb(0,0,139)" width="5" stroke-dasharray="none" height="5" stroke="none"/>
<line clip-path="url(#clipPath1)" fill="none" x1="435" x2="492" y1="161" y2="130" stroke-dasharray="none" stroke="rgb(0,0,139)"/>
<rect x="490" y="128" clip-path="url(#clipPath1)" fill="rgb(0,0,139)" width="5" stroke-dasharray="none" height="5" stroke="none"/>
<line clip-path="url(#clipPath1)" fill="none" x1="492" x2="549" y1="130" y2="123" stroke-dasharray="none" stroke="rgb(0,0,139)"/>
<rect x="547" y="121" clip-path="url(#clipPath1)" fill="rgb(0,0,139)" width="5" stroke-dasharray="none" height="5" stroke="none"/>
<circle clip-path="url(#clipPath1)" fill="rgb(238,0,0)" stroke-dasharray="none" r="2" cx="37" cy="367" stroke="none"/>
<line clip-path="url(#clipPath1)" fill="none" x1="37" x2="94" y1="367" y2="341" stroke-dasharray="none" stroke="rgb(238,0,0)"/>
<circle clip-path="url(#clipPath1)" fill="rgb(238,0,0)" stroke-dasharray="none" r="2" cx="94" cy="341" stroke="none"/>
<line clip-path="url(#clipPath1)" fill="none" x1="94" x2="151" y1="341" y2="308" stroke-dasharray="none" stroke="rgb(238,0,0)"/>
<circle clip-path="url(#clipPath1)" fill="rgb(238,0,0)" stroke-dasharray="none" r="2" cx="151" cy="308" stroke="none"/>
<line clip-path="url(#clipPath1)" fill="none" x1="151" x2="208" y1="308" y2="281" stroke-dasharray="none" stroke="rgb(238,0,0)"/>
<circle clip-path="url(#clipPath1)" fill="rgb(238,0,0)" stroke-dasharray="none" r="2" cx="208" cy="281" stroke="none"/>
<line clip-path="url(#clipPath1)" fill="none" x1="208" x2="265" y1="281" y2="276" stroke-dasharray="none" stroke="rgb(238,0,0)"/>
<circle clip-path="url(#clipPath1)" fill="rgb(238,0,0)" stroke-dasharray="none" r="2" cx="265" cy="276" stroke="none"/>
<line clip-path="url(#clipPath1)" fill="none" x1="265" x2="321" y1="276" y2="249" stroke-dasharray="none" stroke="rgb(238,0,0)"/>
<circle clip-path="url(#clipPath1)" fill="rgb(238,0,0)" stroke-dasharray="none" r="2" cx="321" cy="249" stroke="none"/>
<line clip-path="url(#clipPath1)" fill="none" x1="321" x2="378" y1="249" y2="237" stroke-dasharray="none" stroke="rgb(238,0,0)"/>
<circle clip-path="url(#clipPath1)" fill="rgb(238,0,0)" stroke-dasharray="none" r="2" cx="378" cy="237" stroke="none"/>
<line clip-path="url(#clipPath1)" fill="none" x1="378" x2="435" y1="237" y2="238" stroke-dasharray="none" stroke="rgb(238,0,0)"/>
<circle clip-path="url(#clipPath1)" fill="rgb(238,0,0)" stroke-dasharray="none" r="2" cx="435" cy="238" stroke="none"/>
<line clip-path="url(#clipPath1)" fill="none" x1="435" x2="492" y1="238" y2="227" stroke-dasharray="none" stroke="rgb(238,0,0)"/>
<circle clip-path="url(#clipPath1)" fill="rgb(238,0,0)" stroke-dasharray="none" r="2" cx="492" cy="227" stroke="none"/>
<line clip-path="url(#clipPath1)" fill="none" x1="492" x2="549" y1="227" y2="240" stroke-dasharray="none" stroke="rgb(238,0,0)"/>
<circle clip-path="url(#clipPath1)" fill="rgb(238,0,0)" stroke-dasharray="none" r="2" cx="549" cy="240" stroke="none"/>
<polygon fill="rgb(0,100,0)" stroke-dasharray="none" clip-path="url(#clipPath1)" points=" 37 384 40 389 34 389 37 384" stroke="none"/>
<line clip-path="url(#clipPath1)" fill="none" x1="37" x2="94" y1="387" y2="372" stroke-dasharray="none" stroke="rgb(0,100,0)"/>
<polygon fill="rgb(0,100,0)" stroke-dasharray="none" clip-path="url(#clipPath1)" points=" 94 369 97 374 91 374 94 369" stroke="none"/>
<line clip-path="url(#clipPath1)" fill="none" x1="94" x2="151" y1="372" y2="356" stroke-dasharray="none" stroke="rgb(0,100,0)"/>
<polygon fill="rgb(0,100,0)" stroke-dasharray="none" clip-path="url(#clipPath1)" points=" 151 353 154 358 148 358 151 353" stroke="none"/>
<line clip-path="url(#clipPath1)" fill="none" x1="151" x2="208" y1="356" y2="341" stroke-dasharray="none" stroke="rgb(0,100,0)"/>
<polygon fill="rgb(0,100,0)" stroke-dasharray="none" clip-path="url(#clipPath1)" points=" 208 338 211 343 205 343 208 338" stroke="none"/>
<line clip-path="url(#clipPath1)" fill="none" x1="208" x2="265" y1="341" y2="330" stroke-dasharray="none" stroke="rgb(0,100,0)"/>
<polygon fill="rgb(0,100,0)" stroke-dasharray="none" clip-path="url(#clipPath1)" points=" 265 327 268 332 262 332 265 327" stroke="none"/>
<line clip-path="url(#clipPath1)" fill="none" x1="265" x2="321" y1="330" y2="311" stroke-dasharray="none" stroke="rgb(0,100,0)"/>
<polygon fill="rgb(0,100,0)" stroke-dasharray="none" clip-path="url(#clipPath1)" points=" 321 308 324 313 318 313 321 308" stroke="none"/>
<line clip-path="url(#clipPath1)" fill="none" x1="321" x2="378" y1="311" y2="308" stroke-dasharray="none" stroke="rgb(0,100,0)"/>
<polygon fill="rgb(0,100,0)" stroke-dasharray="none" clip-path="url(#clipPath1)" points=" 378 305 381 310 375 310 378 305" stroke="none"/>
<line clip-path="url(#clipPath1)" fill="none" x1="378" x2="435" y1="308" y2="299" stroke-dasharray="none" stroke="rgb(0,100,0)"/>
<polygon fill="rgb(0,100,0)" stroke-dasharray="none" clip-path="url(#clipPath1)" points=" 435 296 438 301 432 301 435 296" stroke="none"/>
<line clip-path="url(#clipPath1)" fill="none" x1="435" x2="492" y1="299" y2="285" stroke-dasharray="none" stroke="rgb(0,100,0)"/>
<polygon fill="rgb(0,100,0)" stroke-dasharray="none" clip-path="url(#clipPath1)" points=" 492 282 495 287 489 287 492 282" stroke="none"/>
<line clip-path="url(#clipPath1)" fill="none" x1="492" x2="549" y1="285" y2="274" stroke-dasharray="none" stroke="rgb(0,100,0)"/>
<polygon fill="rgb(0,100,0)" stroke-dasharray="none" clip-path="url(#clipPath1)" points=" 549 271 552 276 546 276 549 271" stroke="none"/>
<polygon fill="rgb(255,165,0)" stroke-dasharray="none" clip-path="url(#clipPath1)" points=" 34 383 37 380 40 383 37 386 34 383" stroke="none"/>
<line clip-path="url(#clipPath1)" fill="none" x1="37" x2="94" y1="383" y2="368" stroke-dasharray="none" stroke="rgb(255,165,0)"/>
<polygon fill="rgb(255,165,0)" stroke-dasharray="none" clip-path="url(#clipPath1)" points=" 91 368 94 365 97 368 94 371 91 368" stroke="none"/>
<line clip-path="url(#clipPath1)" fill="none" x1="94" x2="151" y1="368" y2="355" stroke-dasharray="none" stroke="rgb(255,165,0)"/>
<polygon fill="rgb(255,165,0)" stroke-dasharray="none" clip-path="url(#clipPath1)" points=" 148 355 151 352 154 355 151 358 148 355" stroke="none"/>
<line clip-path="url(#clipPath1)" fill="none" x1="151" x2="208" y1="355" y2="331" stroke-dasharray="none" stroke="rgb(255,165,0)"/>
<polygon fill="rgb(255,165,0)" stroke-dasharray="none" clip-path="url(#clipPath1)" points=" 205 331 208 328 211 331 208 334 205 331" stroke="none"/>
<line clip-path="url(#clipPath1)" fill="none" x1="208" x2="265" y1="331" y2="320" stroke-dasharray="none" stroke="rgb(255,165,0)"/>
<polygon fill="rgb(255,165,0)" stroke-dasharray="none" clip-path="url(#clipPath1)" points=" 262 320 265 317 268 320 265 323 262 320" stroke="none"/>
<line clip-path="url(#clipPath1)" fill="none" x1="265" x2="321" y1="320" y2="314" stroke-dasharray="none" stroke="rgb(255,165,0)"/>
<polygon fill="rgb(255,165,0)" stroke-dasharray="none" clip-path="url(#clipPath1)" points=" 318 314 321 311 324 314 321 317 318 314" stroke="none"/>
<line clip-path="url(#clipPath1)" fill="none" x1="321" x2="378" y1="314" y2="288" stroke-dasharray="none" stroke="rgb(255,165,0)"/>
<polygon fill="rgb(255,165,0)" stroke-dasharray="none" clip-path="url(#clipPath1)" points=" 375 288 378 285 381 288 378 291 375 288" stroke="none"/>
<line clip-path="url(#clipPath1)" fill="none" x1="378" x2="435" y1="288" y2="270" stroke-dasharray="none" stroke="rgb(255,165,0)"/>
<polygon fill="rgb(255,165,0)" stroke-dasharray="none" clip-path="url(#clipPath1)" points=" 432 270 435 267 438 270 435 273 432 270" stroke="none"/>
<line clip-path="url(#clipPath1)" fill="none" x1="435" x2="492" y1="270" y2="269" stroke-dasharray="none" stroke="rgb(255,165,0)"/>
<polygon fill="rgb(255,165,0)" stroke-dasharray="none" clip-path="url(#clipPath1)" points=" 489 269 492 266 495 269 492 272 489 269" stroke="none"/>
<line clip-path="url(#clipPath1)" fill="none" x1="492" x2="549" y1="269" y2="250" stroke-dasharray="none" stroke="rgb(255,165,0)"/>
<polygon fill="rgb(255,165,0)" stroke-dasharray="none" clip-path="url(#clipPath1)" points=" 546 250 549 247 552 250 549 253 546 250" stroke="none"/>
<line clip-path="url(#clipPath1)" fill="none" x1="35" x2="39" y1="387" y2="391" stroke-dasharray="none" stroke="green"/>
<line clip-path="url(#clipPath1)" fill="none" x1="35" x2="39" y1="391" y2="387" stroke-dasharray="none" stroke="green"/>
<line clip-path="url(#clipPath1)" fill="none" x1="37" x2="94" y1="389" y2="381" stroke-dasharray="none" stroke="green"/>
<line clip-path="url(#clipPath1)" fill="none" x1="92" x2="96" y1="379" y2="383" stroke-dasharray="none" stroke="green"/>
<line clip-path="url(#clipPath1)" fill="none" x1="92" x2="96" y1="383" y2="379" stroke-dasharray="none" stroke="green"/>
<line clip-path="url(#clipPath1)" fill="none" x1="94" x2="151" y1="381" y2="366" stroke-dasharray="none" stroke="green"/>
<line clip-path="url(#clipPath1)" fill="none" x1="149" x2="153" y1="364" y2="368" stroke-dasharray="none" stroke="green"/>
<line clip-path="url(#clipPath1)" fill="none" x1="149" x2="153" y1="368" y2="364" stroke-dasharray="none" stroke="green"/>
<line clip-path="url(#clipPath1)" fill="none" x1="151" x2="208" y1="366" y2="354" stroke-dasharray="none" stroke="green"/>
<line clip-path="url(#clipPath1)" fill="none" x1="206" x2="210" y1="352" y2="356" stroke-dasharray="none" stroke="green"/>
<line clip-path="url(#clipPath1)" fill="none" x1="206" x2="210" y1="356" y2="352" stroke-dasharray="none" stroke="green"/>
<line clip-path="url(#clipPath1)" fill="none" x1="208" x2="265" y1="354" y2="353" stroke-dasharray="none" stroke="green"/>
<line clip-path="url(#clipPath1)" fill="none" x1="263" x2="267" y1="351" y2="355" stroke-dasharray="none" stroke="green"/>
<line clip-path="url(#clipPath1)" fill="none" x1="263" x2="267" y1="355" y2="351" stroke-dasharray="none" stroke="green"/>
<line clip-path="url(#clipPath1)" fill="none" x1="265" x2="321" y1="353" y2="338" stroke-dasharray="none" stroke="green"/>
<line clip-path="url(#clipPath1)" fill="none" x1="319" x2="323" y1="336" y2="340" stroke-dasharray="none" stroke="green"/>
<line clip-path="url(#clipPath1)" fill="none" x1="319" x2="323" y1="340" y2="336" stroke-dasharray="none" stroke="green"/>
<line clip-path="url(#clipPath1)" fill="none" x1="321" x2="378" y1="338" y2="321" stroke-dasharray="none" stroke="green"/>
<line clip-path="url(#clipPath1)" fill="none" x1="376" x2="380" y1="319" y2="323" stroke-dasharray="none" stroke="green"/>
<line clip-path="url(#clipPath1)" fill="none" x1="376" x2="380" y1="323" y2="319" stroke-dasharray="none" stroke="green"/>
<line clip-path="url(#clipPath1)" fill="none" x1="378" x2="435" y1="321" y2="315" stroke-dasharray="none" stroke="green"/>
<line clip-path="url(#clipPath1)" fill="none" x1="433" x2="437" y1="313" y2="317" stroke-dasharray="none" stroke="green"/>
<line clip-path="url(#clipPath1)" fill="none" x1="433" x2="437" y1="317" y2="313" stroke-dasharray="none" stroke="green"/>
<line clip-path="url(#clipPath1)" fill="none" x1="435" x2="492" y1="315" y2="309" stroke-dasharray="none" stroke="green"/>
<line clip-path="url(#clipPath1)" fill="none" x1="490" x2="494" y1="307" y2="311" stroke-dasharray="none" stroke="green"/>
<line clip-path="url(#clipPath1)" fill="none" x1="490" x2="494" y1="311" y2="307" stroke-dasharray="none" stroke="green"/>
<line clip-path="url(#clipPath1)" fill="none" x1="492" x2="549" y1="309" y2="294" stroke-dasharray="none" stroke="green"/>
<line clip-path="url(#clipPath1)" fill="none" x1="547" x2="551" y1="292" y2="296" stroke-dasharray="none" stroke="green"/>
<line clip-path="url(#clipPath1)" fill="none" x1="547" x2="551" y1="296" y2="292" stroke-dasharray="none" stroke="green"/>
<line clip-path="url(#clipPath1)" fill="none" x1="35" x2="39" y1="380" y2="380" stroke-dasharray="none" stroke="rgb(169,169,169)"/>
<line clip-path="url(#clipPath1)" fill="none" x1="37" x2="37" y1="378" y2="382" stroke-dasharray="none" stroke="rgb(169,169,169)"/>
<line clip-path="url(#clipPath1)" fill="none" x1="37" x2="94" y1="380" y2="355" stroke-dasharray="none" stroke="rgb(169,169,169)"/>
<line clip-path="url(#clipPath1)" fill="none" x1="92" x2="96" y1="355" y2="355" stroke-dasharray="none" stroke="rgb(169,169,169)"/>
<line clip-path="url(#clipPath1)" fill="none" x1="94" x2="94" y1="353" y2="357" stroke-dasharray="none" stroke="rgb(169,169,169)"/>
<line clip-path="url(#clipPath1)" fill="none" x1="94" x2="151" y1="355" y2="330" stroke-dasharray="none" stroke="rgb(169,169,169)"/>
<line clip-path="url(#clipPath1)" fill="none" x1="149" x2="153" y1="330" y2="330" stroke-dasharray="none" stroke="rgb(169,169,169)"/>
<line clip-path="url(#clipPath1)" fill="none" x1="151" x2="151" y1="328" y2="332" stroke-dasharray="none" stroke="rgb(169,169,169)"/>
<line clip-path="url(#clipPath1)" fill="none" x1="151" x2="208" y1="330" y2="304" stroke-dasharray="none" stroke="rgb(169,169,169)"/>
<line clip-path="url(#clipPath1)" fill="none" x1="206" x2="210" y1="304" y2="304" stroke-dasharray="none" stroke="rgb(169,169,169)"/>
<line clip-path="url(#clipPath1)" fill="none" x1="208" x2="208" y1="302" y2="306" stroke-dasharray="none" stroke="rgb(169,169,169)"/>
<line clip-path="url(#clipPath1)" fill="none" x1="208" x2="265" y1="304" y2="289" stroke-dasharray="none" stroke="rgb(169,169,169)"/>
<line clip-path="url(#clipPath1)" fill="none" x1="263" x2="267" y1="289" y2="289" stroke-dasharray="none" stroke="rgb(169,169,169)"/>
<line clip-path="url(#clipPath1)" fill="none" x1="265" x2="265" y1="287" y2="291" stroke-dasharray="none" stroke="rgb(169,169,169)"/>
<line clip-path="url(#clipPath1)" fill="none" x1="265" x2="321" y1="289" y2="261" stroke-dasharray="none" stroke="rgb(169,169,169)"/>
<line clip-path="url(#clipPath1)" fill="none" x1="319" x2="323" y1="261" y2="261" stroke-dasharray="none" stroke="rgb(169,169,169)"/>
<line clip-path="url(#clipPath1)" fill="none" x1="321" x2="321" y1="259" y2="263" stroke-dasharray="none" stroke="rgb(169,169,169)"/>
<line clip-path="url(#clipPath1)" fill="none" x1="321" x2="378" y1="261" y2="255" stroke-dasharray="none" stroke="rgb(169,169,169)"/>
<line clip-path="url(#clipPath1)" fill="none" x1="376" x2="380" y1="255" y2="255" stroke-dasharray="none" stroke="rgb(169,169,169)"/>
<line clip-path="url(#clipPath1)" fill="none" x1="378" x2="378" y1="253" y2="257" stroke-dasharray="none" stroke="rgb(169,169,169)"/>
<line clip-path="url(#clipPath1)" fill="none" x1="378" x2="435" y1="255" y2="225" stroke-dasharray="none" stroke="rgb(169,169,169)"/>
<line clip-path="url(#clipPath1)" fill="none" x1="433" x2="437" y1="225" y2="225" stroke-dasharray="none" stroke="rgb(169,169,169)"/>
<line clip-path="url(#clipPath1)" fill="none" x1="435" x2="435" y1="223" y2="227" stroke-dasharray="none" stroke="rgb(169,169,169)"/>
<line clip-path="url(#clipPath1)" fill="none" x1="435" x2="492" y1="225" y2="208" stroke-dasharray="none" stroke="rgb(169,169,169)"/>
<line clip-path="url(#clipPath1)" fill="none" x1="490" x2="494" y1="208" y2="208" stroke-dasharray="none" stroke="rgb(169,169,169)"/>
<line clip-path="url(#clipPath1)" fill="none" x1="492" x2="492" y1="206" y2="210" stroke-dasharray="none" stroke="rgb(169,169,169)"/>
<line clip-path="url(#clipPath1)" fill="none" x1="492" x2="549" y1="208" y2="190" stroke-dasharray="none" stroke="rgb(169,169,169)"/>
<line clip-path="url(#clipPath1)" fill="none" x1="547" x2="551" y1="190" y2="190" stroke-dasharray="none" stroke="rgb(169,169,169)"/>
<line clip-path="url(#clipPath1)" fill="none" x1="549" x2="549" y1="188" y2="192" stroke-dasharray="none" stroke="rgb(169,169,169)"/>
<rect x="32" y="30" clip-path="url(#clipPath2)" fill="none" width="523" stroke-dasharray="none" height="372" stroke="black"/>
</g>
<g text-rendering="geometricPrecision" font-size="10" font-family="'Arial'" stroke-linecap="butt">
<text xml:space="preserve" x="1" y="10" clip-path="url(#clipPath2)" stroke="none">Throughput-total</text>
<rect x="37" y="35" clip-path="url(#clipPath3)" fill="white" width="288" height="101" stroke="none"/>
<line clip-path="url(#clipPath3)" fill="none" x1="43" x2="57" y1="45" y2="45" stroke="green"/>
<line clip-path="url(#clipPath3)" fill="none" x1="47" x2="53" y1="42" y2="48" stroke="green"/>
<line clip-path="url(#clipPath3)" fill="none" x1="47" x2="53" y1="48" y2="42" stroke="green"/>
<text xml:space="preserve" x="59" y="50" clip-path="url(#clipPath3)" stroke="none">CPMnet.sink Throughput-total-succ - configname=Central_lmsg2x4 a=15</text>
<line clip-path="url(#clipPath3)" fill="none" x1="43" x2="57" y1="61" y2="61" stroke="rgb(169,169,169)"/>
<line clip-path="url(#clipPath3)" fill="none" x1="46" x2="54" y1="61" y2="61" stroke="rgb(169,169,169)" stroke-width="2"/>
<line clip-path="url(#clipPath3)" fill="none" x1="50" x2="50" y1="57" y2="65" stroke="rgb(169,169,169)" stroke-width="2"/>
<text x="59" y="66" clip-path="url(#clipPath3)" stroke="none" stroke-width="2" xml:space="preserve">CPMnet.sink Throughput-total-succ - configname=Central_lmsg2x4 a=30</text>
<line clip-path="url(#clipPath3)" fill="none" x1="43" x2="57" y1="77" y2="77" stroke="rgb(255,165,0)"/>
<polygon fill="rgb(255,165,0)" clip-path="url(#clipPath3)" points=" 46 77 50 73 54 77 50 81 46 77" stroke="none"/>
<text xml:space="preserve" x="59" y="82" clip-path="url(#clipPath3)" stroke="none">CPMnet.sink Throughput-total-succ - configname=Cpm_lmsg2x4 a=15</text>
<line clip-path="url(#clipPath3)" fill="none" x1="43" x2="57" y1="93" y2="93" stroke="rgb(0,0,139)"/>
<rect x="47" y="90" clip-path="url(#clipPath3)" fill="rgb(0,0,139)" width="7" height="7" stroke="none"/>
<text xml:space="preserve" x="59" y="98" clip-path="url(#clipPath3)" stroke="none">CPMnet.sink Throughput-total-succ - configname=Cpm_lmsg2x4 a=30</text>
<line clip-path="url(#clipPath3)" fill="none" x1="43" x2="57" y1="109" y2="109" stroke="rgb(0,100,0)"/>
<polygon fill="rgb(0,100,0)" clip-path="url(#clipPath3)" points=" 50 104 55 112 45 112 50 104" stroke="none"/>
<text xml:space="preserve" x="59" y="114" clip-path="url(#clipPath3)" stroke="none">CPMnet.sink Throughput-total-succ - configname=PreNoRepeat_lmsg2x4 a=15</text>
<line clip-path="url(#clipPath3)" fill="none" x1="43" x2="57" y1="125" y2="125" stroke="rgb(238,0,0)"/>
<circle clip-path="url(#clipPath3)" fill="rgb(238,0,0)" r="3" cx="50" cy="125" stroke="none"/>
<text xml:space="preserve" x="59" y="130" clip-path="url(#clipPath3)" stroke="none">CPMnet.sink Throughput-total-succ - configname=PreNoRepeat_lmsg2x4 a=30</text>
<line clip-path="url(#clipPath2)" fill="none" x1="32" x2="555" y1="28" y2="28"/>
<line clip-path="url(#clipPath2)" fill="none" x1="32" x2="555" y1="404" y2="404"/>
<text xml:space="preserve" x="284" y="431" clip-path="url(#clipPath2)" stroke="none">MPL</text>
<line clip-path="url(#clipPath2)" fill="none" x1="37" x2="37" y1="24" y2="28"/>
<line clip-path="url(#clipPath2)" fill="none" x1="37" x2="37" y1="408" y2="404"/>
<text font-size="8" x="32" y="22" clip-path="url(#clipPath2)" stroke="none" xml:space="preserve">1.0</text>
<text font-size="8" x="32" y="417" clip-path="url(#clipPath2)" stroke="none" xml:space="preserve">1.0</text>
<line clip-path="url(#clipPath2)" fill="none" x1="49" x2="49" y1="26" y2="28"/>
<line clip-path="url(#clipPath2)" fill="none" x1="49" x2="49" y1="406" y2="404"/>
<line clip-path="url(#clipPath2)" fill="none" x1="60" x2="60" y1="26" y2="28"/>
<line clip-path="url(#clipPath2)" fill="none" x1="60" x2="60" y1="406" y2="404"/>
<line clip-path="url(#clipPath2)" fill="none" x1="71" x2="71" y1="26" y2="28"/>
<line clip-path="url(#clipPath2)" fill="none" x1="71" x2="71" y1="406" y2="404"/>
<line clip-path="url(#clipPath2)" fill="none" x1="83" x2="83" y1="26" y2="28"/>
<line clip-path="url(#clipPath2)" fill="none" x1="83" x2="83" y1="406" y2="404"/>
<line clip-path="url(#clipPath2)" fill="none" x1="94" x2="94" y1="24" y2="28"/>
<line clip-path="url(#clipPath2)" fill="none" x1="94" x2="94" y1="408" y2="404"/>
<text font-size="8" x="89" y="22" clip-path="url(#clipPath2)" stroke="none" xml:space="preserve">2.0</text>
<text font-size="8" x="89" y="417" clip-path="url(#clipPath2)" stroke="none" xml:space="preserve">2.0</text>
<line clip-path="url(#clipPath2)" fill="none" x1="105" x2="105" y1="26" y2="28"/>
<line clip-path="url(#clipPath2)" fill="none" x1="105" x2="105" y1="406" y2="404"/>
<line clip-path="url(#clipPath2)" fill="none" x1="117" x2="117" y1="26" y2="28"/>
<line clip-path="url(#clipPath2)" fill="none" x1="117" x2="117" y1="406" y2="404"/>
<line clip-path="url(#clipPath2)" fill="none" x1="128" x2="128" y1="26" y2="28"/>
<line clip-path="url(#clipPath2)" fill="none" x1="128" x2="128" y1="406" y2="404"/>
<line clip-path="url(#clipPath2)" fill="none" x1="140" x2="140" y1="26" y2="28"/>
<line clip-path="url(#clipPath2)" fill="none" x1="140" x2="140" y1="406" y2="404"/>
<line clip-path="url(#clipPath2)" fill="none" x1="151" x2="151" y1="24" y2="28"/>
<line clip-path="url(#clipPath2)" fill="none" x1="151" x2="151" y1="408" y2="404"/>
<text font-size="8" x="146" y="22" clip-path="url(#clipPath2)" stroke="none" xml:space="preserve">3.0</text>
<text font-size="8" x="146" y="417" clip-path="url(#clipPath2)" stroke="none" xml:space="preserve">3.0</text>
<line clip-path="url(#clipPath2)" fill="none" x1="162" x2="162" y1="26" y2="28"/>
<line clip-path="url(#clipPath2)" fill="none" x1="162" x2="162" y1="406" y2="404"/>
<line clip-path="url(#clipPath2)" fill="none" x1="174" x2="174" y1="26" y2="28"/>
<line clip-path="url(#clipPath2)" fill="none" x1="174" x2="174" y1="406" y2="404"/>
<line clip-path="url(#clipPath2)" fill="none" x1="185" x2="185" y1="26" y2="28"/>
<line clip-path="url(#clipPath2)" fill="none" x1="185" x2="185" y1="406" y2="404"/>
<line clip-path="url(#clipPath2)" fill="none" x1="196" x2="196" y1="26" y2="28"/>
<line clip-path="url(#clipPath2)" fill="none" x1="196" x2="196" y1="406" y2="404"/>
<line clip-path="url(#clipPath2)" fill="none" x1="208" x2="208" y1="24" y2="28"/>
<line clip-path="url(#clipPath2)" fill="none" x1="208" x2="208" y1="408" y2="404"/>
<text font-size="8" x="203" y="22" clip-path="url(#clipPath2)" stroke="none" xml:space="preserve">4.0</text>
<text font-size="8" x="203" y="417" clip-path="url(#clipPath2)" stroke="none" xml:space="preserve">4.0</text>
<line clip-path="url(#clipPath2)" fill="none" x1="219" x2="219" y1="26" y2="28"/>
<line clip-path="url(#clipPath2)" fill="none" x1="219" x2="219" y1="406" y2="404"/>
<line clip-path="url(#clipPath2)" fill="none" x1="230" x2="230" y1="26" y2="28"/>
<line clip-path="url(#clipPath2)" fill="none" x1="230" x2="230" y1="406" y2="404"/>
<line clip-path="url(#clipPath2)" fill="none" x1="242" x2="242" y1="26" y2="28"/>
<line clip-path="url(#clipPath2)" fill="none" x1="242" x2="242" y1="406" y2="404"/>
<line clip-path="url(#clipPath2)" fill="none" x1="253" x2="253" y1="26" y2="28"/>
<line clip-path="url(#clipPath2)" fill="none" x1="253" x2="253" y1="406" y2="404"/>
<line clip-path="url(#clipPath2)" fill="none" x1="265" x2="265" y1="24" y2="28"/>
<line clip-path="url(#clipPath2)" fill="none" x1="265" x2="265" y1="408" y2="404"/>
<text font-size="8" x="260" y="22" clip-path="url(#clipPath2)" stroke="none" xml:space="preserve">5.0</text>
<text font-size="8" x="260" y="417" clip-path="url(#clipPath2)" stroke="none" xml:space="preserve">5.0</text>
<line clip-path="url(#clipPath2)" fill="none" x1="276" x2="276" y1="26" y2="28"/>
<line clip-path="url(#clipPath2)" fill="none" x1="276" x2="276" y1="406" y2="404"/>
<line clip-path="url(#clipPath2)" fill="none" x1="287" x2="287" y1="26" y2="28"/>
<line clip-path="url(#clipPath2)" fill="none" x1="287" x2="287" y1="406" y2="404"/>
<line clip-path="url(#clipPath2)" fill="none" x1="299" x2="299" y1="26" y2="28"/>
<line clip-path="url(#clipPath2)" fill="none" x1="299" x2="299" y1="406" y2="404"/>
<line clip-path="url(#clipPath2)" fill="none" x1="310" x2="310" y1="26" y2="28"/>
<line clip-path="url(#clipPath2)" fill="none" x1="310" x2="310" y1="406" y2="404"/>
<line clip-path="url(#clipPath2)" fill="none" x1="321" x2="321" y1="24" y2="28"/>
<line clip-path="url(#clipPath2)" fill="none" x1="321" x2="321" y1="408" y2="404"/>
<text font-size="8" x="316" y="22" clip-path="url(#clipPath2)" stroke="none" xml:space="preserve">6.0</text>
<text font-size="8" x="316" y="417" clip-path="url(#clipPath2)" stroke="none" xml:space="preserve">6.0</text>
<line clip-path="url(#clipPath2)" fill="none" x1="333" x2="333" y1="26" y2="28"/>
<line clip-path="url(#clipPath2)" fill="none" x1="333" x2="333" y1="406" y2="404"/>
<line clip-path="url(#clipPath2)" fill="none" x1="344" x2="344" y1="26" y2="28"/>
<line clip-path="url(#clipPath2)" fill="none" x1="344" x2="344" y1="406" y2="404"/>
<line clip-path="url(#clipPath2)" fill="none" x1="356" x2="356" y1="26" y2="28"/>
<line clip-path="url(#clipPath2)" fill="none" x1="356" x2="356" y1="406" y2="404"/>
<line clip-path="url(#clipPath2)" fill="none" x1="367" x2="367" y1="26" y2="28"/>
<line clip-path="url(#clipPath2)" fill="none" x1="367" x2="367" y1="406" y2="404"/>
<line clip-path="url(#clipPath2)" fill="none" x1="378" x2="378" y1="24" y2="28"/>
<line clip-path="url(#clipPath2)" fill="none" x1="378" x2="378" y1="408" y2="404"/>
<text font-size="8" x="373" y="22" clip-path="url(#clipPath2)" stroke="none" xml:space="preserve">7.0</text>
<text font-size="8" x="373" y="417" clip-path="url(#clipPath2)" stroke="none" xml:space="preserve">7.0</text>
<line clip-path="url(#clipPath2)" fill="none" x1="390" x2="390" y1="26" y2="28"/>
<line clip-path="url(#clipPath2)" fill="none" x1="390" x2="390" y1="406" y2="404"/>
<line clip-path="url(#clipPath2)" fill="none" x1="401" x2="401" y1="26" y2="28"/>
<line clip-path="url(#clipPath2)" fill="none" x1="401" x2="401" y1="406" y2="404"/>
<line clip-path="url(#clipPath2)" fill="none" x1="412" x2="412" y1="26" y2="28"/>
<line clip-path="url(#clipPath2)" fill="none" x1="412" x2="412" y1="406" y2="404"/>
<line clip-path="url(#clipPath2)" fill="none" x1="424" x2="424" y1="26" y2="28"/>
<line clip-path="url(#clipPath2)" fill="none" x1="424" x2="424" y1="406" y2="404"/>
<line clip-path="url(#clipPath2)" fill="none" x1="435" x2="435" y1="24" y2="28"/>
<line clip-path="url(#clipPath2)" fill="none" x1="435" x2="435" y1="408" y2="404"/>
<text font-size="8" x="430" y="22" clip-path="url(#clipPath2)" stroke="none" xml:space="preserve">8.0</text>
<text font-size="8" x="430" y="417" clip-path="url(#clipPath2)" stroke="none" xml:space="preserve">8.0</text>
<line clip-path="url(#clipPath2)" fill="none" x1="446" x2="446" y1="26" y2="28"/>
<line clip-path="url(#clipPath2)" fill="none" x1="446" x2="446" y1="406" y2="404"/>
<line clip-path="url(#clipPath2)" fill="none" x1="458" x2="458" y1="26" y2="28"/>
<line clip-path="url(#clipPath2)" fill="none" x1="458" x2="458" y1="406" y2="404"/>
<line clip-path="url(#clipPath2)" fill="none" x1="469" x2="469" y1="26" y2="28"/>
<line clip-path="url(#clipPath2)" fill="none" x1="469" x2="469" y1="406" y2="404"/>
<line clip-path="url(#clipPath2)" fill="none" x1="481" x2="481" y1="26" y2="28"/>
<line clip-path="url(#clipPath2)" fill="none" x1="481" x2="481" y1="406" y2="404"/>
<line clip-path="url(#clipPath2)" fill="none" x1="492" x2="492" y1="24" y2="28"/>
<line clip-path="url(#clipPath2)" fill="none" x1="492" x2="492" y1="408" y2="404"/>
<text font-size="8" x="487" y="22" clip-path="url(#clipPath2)" stroke="none" xml:space="preserve">9.0</text>
<text font-size="8" x="487" y="417" clip-path="url(#clipPath2)" stroke="none" xml:space="preserve">9.0</text>
<line clip-path="url(#clipPath2)" fill="none" x1="503" x2="503" y1="26" y2="28"/>
<line clip-path="url(#clipPath2)" fill="none" x1="503" x2="503" y1="406" y2="404"/>
<line clip-path="url(#clipPath2)" fill="none" x1="515" x2="515" y1="26" y2="28"/>
<line clip-path="url(#clipPath2)" fill="none" x1="515" x2="515" y1="406" y2="404"/>
<line clip-path="url(#clipPath2)" fill="none" x1="526" x2="526" y1="26" y2="28"/>
<line clip-path="url(#clipPath2)" fill="none" x1="526" x2="526" y1="406" y2="404"/>
<line clip-path="url(#clipPath2)" fill="none" x1="537" x2="537" y1="26" y2="28"/>
<line clip-path="url(#clipPath2)" fill="none" x1="537" x2="537" y1="406" y2="404"/>
<line clip-path="url(#clipPath2)" fill="none" x1="549" x2="549" y1="24" y2="28"/>
<line clip-path="url(#clipPath2)" fill="none" x1="549" x2="549" y1="408" y2="404"/>
<text font-size="8" x="542" y="22" clip-path="url(#clipPath2)" stroke="none" xml:space="preserve">10.0</text>
<text font-size="8" x="542" y="417" clip-path="url(#clipPath2)" stroke="none" xml:space="preserve">10.0</text>
<line clip-path="url(#clipPath2)" fill="none" x1="30" x2="30" y1="30" y2="402"/>
<line clip-path="url(#clipPath2)" fill="none" x1="557" x2="557" y1="30" y2="402"/>
<line clip-path="url(#clipPath2)" fill="none" x1="26" x2="30" y1="402" y2="402"/>
<line clip-path="url(#clipPath2)" fill="none" x1="561" x2="557" y1="402" y2="402"/>
<text font-size="8" x="21" y="406" clip-path="url(#clipPath2)" stroke="none" xml:space="preserve">0</text>
<text font-size="8" x="564" y="406" clip-path="url(#clipPath2)" stroke="none" xml:space="preserve">0</text>
<line clip-path="url(#clipPath2)" fill="none" x1="28" x2="30" y1="366" y2="366"/>
<line clip-path="url(#clipPath2)" fill="none" x1="559" x2="557" y1="366" y2="366"/>
<line clip-path="url(#clipPath2)" fill="none" x1="26" x2="30" y1="330" y2="330"/>
<line clip-path="url(#clipPath2)" fill="none" x1="561" x2="557" y1="330" y2="330"/>
<text font-size="8" x="21" y="334" clip-path="url(#clipPath2)" stroke="none" xml:space="preserve">2</text>
<text font-size="8" x="564" y="334" clip-path="url(#clipPath2)" stroke="none" xml:space="preserve">2</text>
<line clip-path="url(#clipPath2)" fill="none" x1="28" x2="30" y1="294" y2="294"/>
<line clip-path="url(#clipPath2)" fill="none" x1="559" x2="557" y1="294" y2="294"/>
<line clip-path="url(#clipPath2)" fill="none" x1="26" x2="30" y1="258" y2="258"/>
<line clip-path="url(#clipPath2)" fill="none" x1="561" x2="557" y1="258" y2="258"/>
<text font-size="8" x="21" y="262" clip-path="url(#clipPath2)" stroke="none" xml:space="preserve">4</text>
<text font-size="8" x="564" y="262" clip-path="url(#clipPath2)" stroke="none" xml:space="preserve">4</text>
<line clip-path="url(#clipPath2)" fill="none" x1="28" x2="30" y1="222" y2="222"/>
<line clip-path="url(#clipPath2)" fill="none" x1="559" x2="557" y1="222" y2="222"/>
<line clip-path="url(#clipPath2)" fill="none" x1="26" x2="30" y1="186" y2="186"/>
<line clip-path="url(#clipPath2)" fill="none" x1="561" x2="557" y1="186" y2="186"/>
<text font-size="8" x="21" y="190" clip-path="url(#clipPath2)" stroke="none" xml:space="preserve">6</text>
<text font-size="8" x="564" y="190" clip-path="url(#clipPath2)" stroke="none" xml:space="preserve">6</text>
<line clip-path="url(#clipPath2)" fill="none" x1="28" x2="30" y1="150" y2="150"/>
<line clip-path="url(#clipPath2)" fill="none" x1="559" x2="557" y1="150" y2="150"/>
<line clip-path="url(#clipPath2)" fill="none" x1="26" x2="30" y1="114" y2="114"/>
<line clip-path="url(#clipPath2)" fill="none" x1="561" x2="557" y1="114" y2="114"/>
<text font-size="8" x="21" y="118" clip-path="url(#clipPath2)" stroke="none" xml:space="preserve">8</text>
<text font-size="8" x="564" y="118" clip-path="url(#clipPath2)" stroke="none" xml:space="preserve">8</text>
<line clip-path="url(#clipPath2)" fill="none" x1="28" x2="30" y1="78" y2="78"/>
<line clip-path="url(#clipPath2)" fill="none" x1="559" x2="557" y1="78" y2="78"/>
<line clip-path="url(#clipPath2)" fill="none" x1="26" x2="30" y1="42" y2="42"/>
<line clip-path="url(#clipPath2)" fill="none" x1="561" x2="557" y1="42" y2="42"/>
<text font-size="8" x="17" y="46" clip-path="url(#clipPath2)" stroke="none" xml:space="preserve">10</text>
<text font-size="8" x="564" y="46" clip-path="url(#clipPath2)" stroke="none" xml:space="preserve">10</text>
</g>
</g>
</svg>
