<?xml version="1.0" encoding="UTF-8"?>
<svg xmlns="http://www.w3.org/2000/svg" xmlns:xlink="http://www.w3.org/1999/xlink" stroke-dasharray="none" shape-rendering="auto" font-family="'Dialog'" width="576" text-rendering="auto" fill-opacity="1" contentScriptType="text/ecmascript" color-interpolation="auto" color-rendering="auto" preserveAspectRatio="xMidYMid meet" font-size="12" fill="black" stroke="black" image-rendering="auto" stroke-miterlimit="10" zoomAndPan="magnify" version="1.0" stroke-linecap="square" stroke-linejoin="miter" contentStyleType="text/css" font-style="normal" height="432" stroke-width="1" stroke-dashoffset="0" font-weight="normal" stroke-opacity="1">
<!--Generated by the Batik Graphics2D SVG Generator-->
<defs id="genericDefs"/>
<g>
<defs id="defs1">
<clipPath clipPathUnits="userSpaceOnUse" id="clipPath1">
<path d="M31 29 L556 29 L556 403 L31 403 L31 29 Z"/>
</clipPath>
<clipPath clipPathUnits="userSpaceOnUse" id="clipPath2">
<path d="M-1 -1 L577 -1 L577 433 L-1 433 L-1 -1 Z"/>
</clipPath>
<clipPath clipPathUnits="userSpaceOnUse" id="clipPath3">
<path d="M36 34 L327 34 L327 154 L36 154 L36 34 Z"/>
</clipPath>
</defs>
<g font-size="13" fill="white" text-rendering="geometricPrecision" font-family="'Lucida Grande'" stroke-linejoin="round" stroke="white" stroke-width="0" stroke-miterlimit="0">
<rect x="32" y="30" clip-path="url(#clipPath1)" width="523" height="372" stroke="none"/>
</g>
<g font-size="13" stroke-linecap="butt" fill="rgb(204,204,204)" text-rendering="geometricPrecision" font-family="'Lucida Grande'" stroke-dasharray="3,3" stroke="rgb(204,204,204)">
<line clip-path="url(#clipPath1)" fill="none" x1="37" x2="37" y1="30" y2="402"/>
<line clip-path="url(#clipPath1)" fill="none" x1="94" x2="94" y1="30" y2="402"/>
<line clip-path="url(#clipPath1)" fill="none" x1="151" x2="151" y1="30" y2="402"/>
<line clip-path="url(#clipPath1)" fill="none" x1="208" x2="208" y1="30" y2="402"/>
<line clip-path="url(#clipPath1)" fill="none" x1="265" x2="265" y1="30" y2="402"/>
<line clip-path="url(#clipPath1)" fill="none" x1="321" x2="321" y1="30" y2="402"/>
<line clip-path="url(#clipPath1)" fill="none" x1="378" x2="378" y1="30" y2="402"/>
<line clip-path="url(#clipPath1)" fill="none" x1="435" x2="435" y1="30" y2="402"/>
<line clip-path="url(#clipPath1)" fill="none" x1="492" x2="492" y1="30" y2="402"/>
<line clip-path="url(#clipPath1)" fill="none" x1="549" x2="549" y1="30" y2="402"/>
<line clip-path="url(#clipPath1)" fill="none" x1="32" x2="555" y1="402" y2="402"/>
<line clip-path="url(#clipPath1)" fill="none" x1="32" x2="555" y1="309" y2="309"/>
<line clip-path="url(#clipPath1)" fill="none" x1="32" x2="555" y1="216" y2="216"/>
<line clip-path="url(#clipPath1)" fill="none" x1="32" x2="555" y1="123" y2="123"/>
<line clip-path="url(#clipPath1)" fill="none" x1="32" x2="555" y1="30" y2="30"/>
<rect x="35" y="349" clip-path="url(#clipPath1)" fill="rgb(0,0,139)" width="5" height="5" stroke="none"/>
<line clip-path="url(#clipPath1)" fill="none" x1="37" x2="94" y1="351" y2="298" stroke-dasharray="none" stroke="rgb(0,0,139)"/>
<rect x="92" y="296" clip-path="url(#clipPath1)" fill="rgb(0,0,139)" width="5" stroke-dasharray="none" height="5" stroke="none"/>
<line clip-path="url(#clipPath1)" fill="none" x1="94" x2="151" y1="298" y2="239" stroke-dasharray="none" stroke="rgb(0,0,139)"/>
<rect x="149" y="237" clip-path="url(#clipPath1)" fill="rgb(0,0,139)" width="5" stroke-dasharray="none" height="5" stroke="none"/>
<line clip-path="url(#clipPath1)" fill="none" x1="151" x2="208" y1="239" y2="196" stroke-dasharray="none" stroke="rgb(0,0,139)"/>
<rect x="206" y="194" clip-path="url(#clipPath1)" fill="rgb(0,0,139)" width="5" stroke-dasharray="none" height="5" stroke="none"/>
<line clip-path="url(#clipPath1)" fill="none" x1="208" x2="265" y1="196" y2="160" stroke-dasharray="none" stroke="rgb(0,0,139)"/>
<rect x="263" y="158" clip-path="url(#clipPath1)" fill="rgb(0,0,139)" width="5" stroke-dasharray="none" height="5" stroke="none"/>
<line clip-path="url(#clipPath1)" fill="none" x1="265" x2="321" y1="160" y2="125" stroke-dasharray="none" stroke="rgb(0,0,139)"/>
<rect x="319" y="123" clip-path="url(#clipPath1)" fill="rgb(0,0,139)" width="5" stroke-dasharray="none" height="5" stroke="none"/>
<line clip-path="url(#clipPath1)" fill="none" x1="321" x2="378" y1="125" y2="126" stroke-dasharray="none" stroke="rgb(0,0,139)"/>
<rect x="376" y="124" clip-path="url(#clipPath1)" fill="rgb(0,0,139)" width="5" stroke-dasharray="none" height="5" stroke="none"/>
<line clip-path="url(#clipPath1)" fill="none" x1="378" x2="435" y1="126" y2="127" stroke-dasharray="none" stroke="rgb(0,0,139)"/>
<rect x="433" y="125" clip-path="url(#clipPath1)" fill="rgb(0,0,139)" width="5" stroke-dasharray="none" height="5" stroke="none"/>
<line clip-path="url(#clipPath1)" fill="none" x1="435" x2="492" y1="127" y2="138" stroke-dasharray="none" stroke="rgb(0,0,139)"/>
<rect x="490" y="136" clip-path="url(#clipPath1)" fill="rgb(0,0,139)" width="5" stroke-dasharray="none" height="5" stroke="none"/>
<line clip-path="url(#clipPath1)" fill="none" x1="492" x2="549" y1="138" y2="123" stroke-dasharray="none" stroke="rgb(0,0,139)"/>
<rect x="547" y="121" clip-path="url(#clipPath1)" fill="rgb(0,0,139)" width="5" stroke-dasharray="none" height="5" stroke="none"/>
<circle clip-path="url(#clipPath1)" fill="rgb(238,0,0)" stroke-dasharray="none" r="2" cx="37" cy="388" stroke="none"/>
<line clip-path="url(#clipPath1)" fill="none" x1="37" x2="94" y1="388" y2="373" stroke-dasharray="none" stroke="rgb(238,0,0)"/>
<circle clip-path="url(#clipPath1)" fill="rgb(238,0,0)" stroke-dasharray="none" r="2" cx="94" cy="373" stroke="none"/>
<line clip-path="url(#clipPath1)" fill="none" x1="94" x2="151" y1="373" y2="357" stroke-dasharray="none" stroke="rgb(238,0,0)"/>
<circle clip-path="url(#clipPath1)" fill="rgb(238,0,0)" stroke-dasharray="none" r="2" cx="151" cy="357" stroke="none"/>
<line clip-path="url(#clipPath1)" fill="none" x1="151" x2="208" y1="357" y2="336" stroke-dasharray="none" stroke="rgb(238,0,0)"/>
<circle clip-path="url(#clipPath1)" fill="rgb(238,0,0)" stroke-dasharray="none" r="2" cx="208" cy="336" stroke="none"/>
<line clip-path="url(#clipPath1)" fill="none" x1="208" x2="265" y1="336" y2="329" stroke-dasharray="none" stroke="rgb(238,0,0)"/>
<circle clip-path="url(#clipPath1)" fill="rgb(238,0,0)" stroke-dasharray="none" r="2" cx="265" cy="329" stroke="none"/>
<line clip-path="url(#clipPath1)" fill="none" x1="265" x2="321" y1="329" y2="319" stroke-dasharray="none" stroke="rgb(238,0,0)"/>
<circle clip-path="url(#clipPath1)" fill="rgb(238,0,0)" stroke-dasharray="none" r="2" cx="321" cy="319" stroke="none"/>
<line clip-path="url(#clipPath1)" fill="none" x1="321" x2="378" y1="319" y2="304" stroke-dasharray="none" stroke="rgb(238,0,0)"/>
<circle clip-path="url(#clipPath1)" fill="rgb(238,0,0)" stroke-dasharray="none" r="2" cx="378" cy="304" stroke="none"/>
<line clip-path="url(#clipPath1)" fill="none" x1="378" x2="435" y1="304" y2="286" stroke-dasharray="none" stroke="rgb(238,0,0)"/>
<circle clip-path="url(#clipPath1)" fill="rgb(238,0,0)" stroke-dasharray="none" r="2" cx="435" cy="286" stroke="none"/>
<line clip-path="url(#clipPath1)" fill="none" x1="435" x2="492" y1="286" y2="279" stroke-dasharray="none" stroke="rgb(238,0,0)"/>
<circle clip-path="url(#clipPath1)" fill="rgb(238,0,0)" stroke-dasharray="none" r="2" cx="492" cy="279" stroke="none"/>
<line clip-path="url(#clipPath1)" fill="none" x1="492" x2="549" y1="279" y2="265" stroke-dasharray="none" stroke="rgb(238,0,0)"/>
<circle clip-path="url(#clipPath1)" fill="rgb(238,0,0)" stroke-dasharray="none" r="2" cx="549" cy="265" stroke="none"/>
<polygon fill="rgb(0,100,0)" stroke-dasharray="none" clip-path="url(#clipPath1)" points=" 37 374 40 379 34 379 37 374" stroke="none"/>
<line clip-path="url(#clipPath1)" fill="none" x1="37" x2="94" y1="377" y2="351" stroke-dasharray="none" stroke="rgb(0,100,0)"/>
<polygon fill="rgb(0,100,0)" stroke-dasharray="none" clip-path="url(#clipPath1)" points=" 94 348 97 353 91 353 94 348" stroke="none"/>
<line clip-path="url(#clipPath1)" fill="none" x1="94" x2="151" y1="351" y2="332" stroke-dasharray="none" stroke="rgb(0,100,0)"/>
<polygon fill="rgb(0,100,0)" stroke-dasharray="none" clip-path="url(#clipPath1)" points=" 151 329 154 334 148 334 151 329" stroke="none"/>
<line clip-path="url(#clipPath1)" fill="none" x1="151" x2="208" y1="332" y2="299" stroke-dasharray="none" stroke="rgb(0,100,0)"/>
<polygon fill="rgb(0,100,0)" stroke-dasharray="none" clip-path="url(#clipPath1)" points=" 208 296 211 301 205 301 208 296" stroke="none"/>
<line clip-path="url(#clipPath1)" fill="none" x1="208" x2="265" y1="299" y2="278" stroke-dasharray="none" stroke="rgb(0,100,0)"/>
<polygon fill="rgb(0,100,0)" stroke-dasharray="none" clip-path="url(#clipPath1)" points=" 265 275 268 280 262 280 265 275" stroke="none"/>
<line clip-path="url(#clipPath1)" fill="none" x1="265" x2="321" y1="278" y2="256" stroke-dasharray="none" stroke="rgb(0,100,0)"/>
<polygon fill="rgb(0,100,0)" stroke-dasharray="none" clip-path="url(#clipPath1)" points=" 321 253 324 258 318 258 321 253" stroke="none"/>
<line clip-path="url(#clipPath1)" fill="none" x1="321" x2="378" y1="256" y2="228" stroke-dasharray="none" stroke="rgb(0,100,0)"/>
<polygon fill="rgb(0,100,0)" stroke-dasharray="none" clip-path="url(#clipPath1)" points=" 378 225 381 230 375 230 378 225" stroke="none"/>
<line clip-path="url(#clipPath1)" fill="none" x1="378" x2="435" y1="228" y2="199" stroke-dasharray="none" stroke="rgb(0,100,0)"/>
<polygon fill="rgb(0,100,0)" stroke-dasharray="none" clip-path="url(#clipPath1)" points=" 435 196 438 201 432 201 435 196" stroke="none"/>
<line clip-path="url(#clipPath1)" fill="none" x1="435" x2="492" y1="199" y2="183" stroke-dasharray="none" stroke="rgb(0,100,0)"/>
<polygon fill="rgb(0,100,0)" stroke-dasharray="none" clip-path="url(#clipPath1)" points=" 492 180 495 185 489 185 492 180" stroke="none"/>
<line clip-path="url(#clipPath1)" fill="none" x1="492" x2="549" y1="183" y2="160" stroke-dasharray="none" stroke="rgb(0,100,0)"/>
<polygon fill="rgb(0,100,0)" stroke-dasharray="none" clip-path="url(#clipPath1)" points=" 549 157 552 162 546 162 549 157" stroke="none"/>
<polygon fill="rgb(255,165,0)" stroke-dasharray="none" clip-path="url(#clipPath1)" points=" 34 390 37 387 40 390 37 393 34 390" stroke="none"/>
<line clip-path="url(#clipPath1)" fill="none" x1="37" x2="94" y1="390" y2="377" stroke-dasharray="none" stroke="rgb(255,165,0)"/>
<polygon fill="rgb(255,165,0)" stroke-dasharray="none" clip-path="url(#clipPath1)" points=" 91 377 94 374 97 377 94 380 91 377" stroke="none"/>
<line clip-path="url(#clipPath1)" fill="none" x1="94" x2="151" y1="377" y2="365" stroke-dasharray="none" stroke="rgb(255,165,0)"/>
<polygon fill="rgb(255,165,0)" stroke-dasharray="none" clip-path="url(#clipPath1)" points=" 148 365 151 362 154 365 151 368 148 365" stroke="none"/>
<line clip-path="url(#clipPath1)" fill="none" x1="151" x2="208" y1="365" y2="355" stroke-dasharray="none" stroke="rgb(255,165,0)"/>
<polygon fill="rgb(255,165,0)" stroke-dasharray="none" clip-path="url(#clipPath1)" points=" 205 355 208 352 211 355 208 358 205 355" stroke="none"/>
<line clip-path="url(#clipPath1)" fill="none" x1="208" x2="265" y1="355" y2="345" stroke-dasharray="none" stroke="rgb(255,165,0)"/>
<polygon fill="rgb(255,165,0)" stroke-dasharray="none" clip-path="url(#clipPath1)" points=" 262 345 265 342 268 345 265 348 262 345" stroke="none"/>
<line clip-path="url(#clipPath1)" fill="none" x1="265" x2="321" y1="345" y2="332" stroke-dasharray="none" stroke="rgb(255,165,0)"/>
<polygon fill="rgb(255,165,0)" stroke-dasharray="none" clip-path="url(#clipPath1)" points=" 318 332 321 329 324 332 321 335 318 332" stroke="none"/>
<line clip-path="url(#clipPath1)" fill="none" x1="321" x2="378" y1="332" y2="321" stroke-dasharray="none" stroke="rgb(255,165,0)"/>
<polygon fill="rgb(255,165,0)" stroke-dasharray="none" clip-path="url(#clipPath1)" points=" 375 321 378 318 381 321 378 324 375 321" stroke="none"/>
<line clip-path="url(#clipPath1)" fill="none" x1="378" x2="435" y1="321" y2="303" stroke-dasharray="none" stroke="rgb(255,165,0)"/>
<polygon fill="rgb(255,165,0)" stroke-dasharray="none" clip-path="url(#clipPath1)" points=" 432 303 435 300 438 303 435 306 432 303" stroke="none"/>
<line clip-path="url(#clipPath1)" fill="none" x1="435" x2="492" y1="303" y2="289" stroke-dasharray="none" stroke="rgb(255,165,0)"/>
<polygon fill="rgb(255,165,0)" stroke-dasharray="none" clip-path="url(#clipPath1)" points=" 489 289 492 286 495 289 492 292 489 289" stroke="none"/>
<line clip-path="url(#clipPath1)" fill="none" x1="492" x2="549" y1="289" y2="288" stroke-dasharray="none" stroke="rgb(255,165,0)"/>
<polygon fill="rgb(255,165,0)" stroke-dasharray="none" clip-path="url(#clipPath1)" points=" 546 288 549 285 552 288 549 291 546 288" stroke="none"/>
<line clip-path="url(#clipPath1)" fill="none" x1="35" x2="39" y1="390" y2="394" stroke-dasharray="none" stroke="green"/>
<line clip-path="url(#clipPath1)" fill="none" x1="35" x2="39" y1="394" y2="390" stroke-dasharray="none" stroke="green"/>
<line clip-path="url(#clipPath1)" fill="none" x1="37" x2="94" y1="392" y2="383" stroke-dasharray="none" stroke="green"/>
<line clip-path="url(#clipPath1)" fill="none" x1="92" x2="96" y1="381" y2="385" stroke-dasharray="none" stroke="green"/>
<line clip-path="url(#clipPath1)" fill="none" x1="92" x2="96" y1="385" y2="381" stroke-dasharray="none" stroke="green"/>
<line clip-path="url(#clipPath1)" fill="none" x1="94" x2="151" y1="383" y2="375" stroke-dasharray="none" stroke="green"/>
<line clip-path="url(#clipPath1)" fill="none" x1="149" x2="153" y1="373" y2="377" stroke-dasharray="none" stroke="green"/>
<line clip-path="url(#clipPath1)" fill="none" x1="149" x2="153" y1="377" y2="373" stroke-dasharray="none" stroke="green"/>
<line clip-path="url(#clipPath1)" fill="none" x1="151" x2="208" y1="375" y2="366" stroke-dasharray="none" stroke="green"/>
<line clip-path="url(#clipPath1)" fill="none" x1="206" x2="210" y1="364" y2="368" stroke-dasharray="none" stroke="green"/>
<line clip-path="url(#clipPath1)" fill="none" x1="206" x2="210" y1="368" y2="364" stroke-dasharray="none" stroke="green"/>
<line clip-path="url(#clipPath1)" fill="none" x1="208" x2="265" y1="366" y2="354" stroke-dasharray="none" stroke="green"/>
<line clip-path="url(#clipPath1)" fill="none" x1="263" x2="267" y1="352" y2="356" stroke-dasharray="none" stroke="green"/>
<line clip-path="url(#clipPath1)" fill="none" x1="263" x2="267" y1="356" y2="352" stroke-dasharray="none" stroke="green"/>
<line clip-path="url(#clipPath1)" fill="none" x1="265" x2="321" y1="354" y2="345" stroke-dasharray="none" stroke="green"/>
<line clip-path="url(#clipPath1)" fill="none" x1="319" x2="323" y1="343" y2="347" stroke-dasharray="none" stroke="green"/>
<line clip-path="url(#clipPath1)" fill="none" x1="319" x2="323" y1="347" y2="343" stroke-dasharray="none" stroke="green"/>
<line clip-path="url(#clipPath1)" fill="none" x1="321" x2="378" y1="345" y2="337" stroke-dasharray="none" stroke="green"/>
<line clip-path="url(#clipPath1)" fill="none" x1="376" x2="380" y1="335" y2="339" stroke-dasharray="none" stroke="green"/>
<line clip-path="url(#clipPath1)" fill="none" x1="376" x2="380" y1="339" y2="335" stroke-dasharray="none" stroke="green"/>
<line clip-path="url(#clipPath1)" fill="none" x1="378" x2="435" y1="337" y2="330" stroke-dasharray="none" stroke="green"/>
<line clip-path="url(#clipPath1)" fill="none" x1="433" x2="437" y1="328" y2="332" stroke-dasharray="none" stroke="green"/>
<line clip-path="url(#clipPath1)" fill="none" x1="433" x2="437" y1="332" y2="328" stroke-dasharray="none" stroke="green"/>
<line clip-path="url(#clipPath1)" fill="none" x1="435" x2="492" y1="330" y2="318" stroke-dasharray="none" stroke="green"/>
<line clip-path="url(#clipPath1)" fill="none" x1="490" x2="494" y1="316" y2="320" stroke-dasharray="none" stroke="green"/>
<line clip-path="url(#clipPath1)" fill="none" x1="490" x2="494" y1="320" y2="316" stroke-dasharray="none" stroke="green"/>
<line clip-path="url(#clipPath1)" fill="none" x1="492" x2="549" y1="318" y2="311" stroke-dasharray="none" stroke="green"/>
<line clip-path="url(#clipPath1)" fill="none" x1="547" x2="551" y1="309" y2="313" stroke-dasharray="none" stroke="green"/>
<line clip-path="url(#clipPath1)" fill="none" x1="547" x2="551" y1="313" y2="309" stroke-dasharray="none" stroke="green"/>
<line clip-path="url(#clipPath1)" fill="none" x1="35" x2="39" y1="382" y2="382" stroke-dasharray="none" stroke="rgb(169,169,169)"/>
<line clip-path="url(#clipPath1)" fill="none" x1="37" x2="37" y1="380" y2="384" stroke-dasharray="none" stroke="rgb(169,169,169)"/>
<line clip-path="url(#clipPath1)" fill="none" x1="37" x2="94" y1="382" y2="360" stroke-dasharray="none" stroke="rgb(169,169,169)"/>
<line clip-path="url(#clipPath1)" fill="none" x1="92" x2="96" y1="360" y2="360" stroke-dasharray="none" stroke="rgb(169,169,169)"/>
<line clip-path="url(#clipPath1)" fill="none" x1="94" x2="94" y1="358" y2="362" stroke-dasharray="none" stroke="rgb(169,169,169)"/>
<line clip-path="url(#clipPath1)" fill="none" x1="94" x2="151" y1="360" y2="343" stroke-dasharray="none" stroke="rgb(169,169,169)"/>
<line clip-path="url(#clipPath1)" fill="none" x1="149" x2="153" y1="343" y2="343" stroke-dasharray="none" stroke="rgb(169,169,169)"/>
<line clip-path="url(#clipPath1)" fill="none" x1="151" x2="151" y1="341" y2="345" stroke-dasharray="none" stroke="rgb(169,169,169)"/>
<line clip-path="url(#clipPath1)" fill="none" x1="151" x2="208" y1="343" y2="323" stroke-dasharray="none" stroke="rgb(169,169,169)"/>
<line clip-path="url(#clipPath1)" fill="none" x1="206" x2="210" y1="323" y2="323" stroke-dasharray="none" stroke="rgb(169,169,169)"/>
<line clip-path="url(#clipPath1)" fill="none" x1="208" x2="208" y1="321" y2="325" stroke-dasharray="none" stroke="rgb(169,169,169)"/>
<line clip-path="url(#clipPath1)" fill="none" x1="208" x2="265" y1="323" y2="303" stroke-dasharray="none" stroke="rgb(169,169,169)"/>
<line clip-path="url(#clipPath1)" fill="none" x1="263" x2="267" y1="303" y2="303" stroke-dasharray="none" stroke="rgb(169,169,169)"/>
<line clip-path="url(#clipPath1)" fill="none" x1="265" x2="265" y1="301" y2="305" stroke-dasharray="none" stroke="rgb(169,169,169)"/>
<line clip-path="url(#clipPath1)" fill="none" x1="265" x2="321" y1="303" y2="290" stroke-dasharray="none" stroke="rgb(169,169,169)"/>
<line clip-path="url(#clipPath1)" fill="none" x1="319" x2="323" y1="290" y2="290" stroke-dasharray="none" stroke="rgb(169,169,169)"/>
<line clip-path="url(#clipPath1)" fill="none" x1="321" x2="321" y1="288" y2="292" stroke-dasharray="none" stroke="rgb(169,169,169)"/>
<line clip-path="url(#clipPath1)" fill="none" x1="321" x2="378" y1="290" y2="266" stroke-dasharray="none" stroke="rgb(169,169,169)"/>
<line clip-path="url(#clipPath1)" fill="none" x1="376" x2="380" y1="266" y2="266" stroke-dasharray="none" stroke="rgb(169,169,169)"/>
<line clip-path="url(#clipPath1)" fill="none" x1="378" x2="378" y1="264" y2="268" stroke-dasharray="none" stroke="rgb(169,169,169)"/>
<line clip-path="url(#clipPath1)" fill="none" x1="378" x2="435" y1="266" y2="246" stroke-dasharray="none" stroke="rgb(169,169,169)"/>
<line clip-path="url(#clipPath1)" fill="none" x1="433" x2="437" y1="246" y2="246" stroke-dasharray="none" stroke="rgb(169,169,169)"/>
<line clip-path="url(#clipPath1)" fill="none" x1="435" x2="435" y1="244" y2="248" stroke-dasharray="none" stroke="rgb(169,169,169)"/>
<line clip-path="url(#clipPath1)" fill="none" x1="435" x2="492" y1="246" y2="226" stroke-dasharray="none" stroke="rgb(169,169,169)"/>
<line clip-path="url(#clipPath1)" fill="none" x1="490" x2="494" y1="226" y2="226" stroke-dasharray="none" stroke="rgb(169,169,169)"/>
<line clip-path="url(#clipPath1)" fill="none" x1="492" x2="492" y1="224" y2="228" stroke-dasharray="none" stroke="rgb(169,169,169)"/>
<line clip-path="url(#clipPath1)" fill="none" x1="492" x2="549" y1="226" y2="210" stroke-dasharray="none" stroke="rgb(169,169,169)"/>
<line clip-path="url(#clipPath1)" fill="none" x1="547" x2="551" y1="210" y2="210" stroke-dasharray="none" stroke="rgb(169,169,169)"/>
<line clip-path="url(#clipPath1)" fill="none" x1="549" x2="549" y1="208" y2="212" stroke-dasharray="none" stroke="rgb(169,169,169)"/>
<rect x="35" y="374" clip-path="url(#clipPath1)" fill="rgb(160,0,0)" width="5" stroke-dasharray="none" height="5" stroke="none"/>
<line clip-path="url(#clipPath1)" fill="none" x1="37" x2="94" y1="376" y2="354" stroke-dasharray="none" stroke="rgb(160,0,0)"/>
<rect x="92" y="352" clip-path="url(#clipPath1)" fill="rgb(160,0,0)" width="5" stroke-dasharray="none" height="5" stroke="none"/>
<line clip-path="url(#clipPath1)" fill="none" x1="94" x2="151" y1="354" y2="329" stroke-dasharray="none" stroke="rgb(160,0,0)"/>
<rect x="149" y="327" clip-path="url(#clipPath1)" fill="rgb(160,0,0)" width="5" stroke-dasharray="none" height="5" stroke="none"/>
<line clip-path="url(#clipPath1)" fill="none" x1="151" x2="208" y1="329" y2="309" stroke-dasharray="none" stroke="rgb(160,0,0)"/>
<rect x="206" y="307" clip-path="url(#clipPath1)" fill="rgb(160,0,0)" width="5" stroke-dasharray="none" height="5" stroke="none"/>
<line clip-path="url(#clipPath1)" fill="none" x1="208" x2="265" y1="309" y2="286" stroke-dasharray="none" stroke="rgb(160,0,0)"/>
<rect x="263" y="284" clip-path="url(#clipPath1)" fill="rgb(160,0,0)" width="5" stroke-dasharray="none" height="5" stroke="none"/>
<line clip-path="url(#clipPath1)" fill="none" x1="265" x2="321" y1="286" y2="265" stroke-dasharray="none" stroke="rgb(160,0,0)"/>
<rect x="319" y="263" clip-path="url(#clipPath1)" fill="rgb(160,0,0)" width="5" stroke-dasharray="none" height="5" stroke="none"/>
<line clip-path="url(#clipPath1)" fill="none" x1="321" x2="378" y1="265" y2="244" stroke-dasharray="none" stroke="rgb(160,0,0)"/>
<rect x="376" y="242" clip-path="url(#clipPath1)" fill="rgb(160,0,0)" width="5" stroke-dasharray="none" height="5" stroke="none"/>
<line clip-path="url(#clipPath1)" fill="none" x1="378" x2="435" y1="244" y2="225" stroke-dasharray="none" stroke="rgb(160,0,0)"/>
<rect x="433" y="223" clip-path="url(#clipPath1)" fill="rgb(160,0,0)" width="5" stroke-dasharray="none" height="5" stroke="none"/>
<line clip-path="url(#clipPath1)" fill="none" x1="435" x2="492" y1="225" y2="203" stroke-dasharray="none" stroke="rgb(160,0,0)"/>
<rect x="490" y="201" clip-path="url(#clipPath1)" fill="rgb(160,0,0)" width="5" stroke-dasharray="none" height="5" stroke="none"/>
<line clip-path="url(#clipPath1)" fill="none" x1="492" x2="549" y1="203" y2="193" stroke-dasharray="none" stroke="rgb(160,0,0)"/>
<rect x="547" y="191" clip-path="url(#clipPath1)" fill="rgb(160,0,0)" width="5" stroke-dasharray="none" height="5" stroke="none"/>
<circle clip-path="url(#clipPath1)" fill="teal" stroke-dasharray="none" r="2" cx="37" cy="370" stroke="none"/>
<line clip-path="url(#clipPath1)" fill="none" x1="37" x2="94" y1="370" y2="341" stroke-dasharray="none" stroke="teal"/>
<circle clip-path="url(#clipPath1)" fill="teal" stroke-dasharray="none" r="2" cx="94" cy="341" stroke="none"/>
<line clip-path="url(#clipPath1)" fill="none" x1="94" x2="151" y1="341" y2="304" stroke-dasharray="none" stroke="teal"/>
<circle clip-path="url(#clipPath1)" fill="teal" stroke-dasharray="none" r="2" cx="151" cy="304" stroke="none"/>
<line clip-path="url(#clipPath1)" fill="none" x1="151" x2="208" y1="304" y2="282" stroke-dasharray="none" stroke="teal"/>
<circle clip-path="url(#clipPath1)" fill="teal" stroke-dasharray="none" r="2" cx="208" cy="282" stroke="none"/>
<line clip-path="url(#clipPath1)" fill="none" x1="208" x2="265" y1="282" y2="254" stroke-dasharray="none" stroke="teal"/>
<circle clip-path="url(#clipPath1)" fill="teal" stroke-dasharray="none" r="2" cx="265" cy="254" stroke="none"/>
<line clip-path="url(#clipPath1)" fill="none" x1="265" x2="321" y1="254" y2="225" stroke-dasharray="none" stroke="teal"/>
<circle clip-path="url(#clipPath1)" fill="teal" stroke-dasharray="none" r="2" cx="321" cy="225" stroke="none"/>
<line clip-path="url(#clipPath1)" fill="none" x1="321" x2="378" y1="225" y2="193" stroke-dasharray="none" stroke="teal"/>
<circle clip-path="url(#clipPath1)" fill="teal" stroke-dasharray="none" r="2" cx="378" cy="193" stroke="none"/>
<line clip-path="url(#clipPath1)" fill="none" x1="378" x2="435" y1="193" y2="173" stroke-dasharray="none" stroke="teal"/>
<circle clip-path="url(#clipPath1)" fill="teal" stroke-dasharray="none" r="2" cx="435" cy="173" stroke="none"/>
<line clip-path="url(#clipPath1)" fill="none" x1="435" x2="492" y1="173" y2="141" stroke-dasharray="none" stroke="teal"/>
<circle clip-path="url(#clipPath1)" fill="teal" stroke-dasharray="none" r="2" cx="492" cy="141" stroke="none"/>
<line clip-path="url(#clipPath1)" fill="none" x1="492" x2="549" y1="141" y2="124" stroke-dasharray="none" stroke="teal"/>
<circle clip-path="url(#clipPath1)" fill="teal" stroke-dasharray="none" r="2" cx="549" cy="124" stroke="none"/>
<rect x="32" y="30" clip-path="url(#clipPath2)" fill="none" width="523" stroke-dasharray="none" height="372" stroke="black"/>
</g>
<g text-rendering="geometricPrecision" font-size="10" font-family="'Arial'" stroke-linecap="butt">
<text xml:space="preserve" x="1" y="10" clip-path="url(#clipPath2)" stroke="none">Throughput-total</text>
<rect x="37" y="35" clip-path="url(#clipPath3)" fill="white" width="288" height="117" stroke="none"/>
<line clip-path="url(#clipPath3)" fill="none" x1="43" x2="57" y1="44" y2="44" stroke="rgb(160,0,0)"/>
<rect x="47" y="41" clip-path="url(#clipPath3)" fill="rgb(160,0,0)" width="7" height="7" stroke="none"/>
<text font-size="8" x="59" y="48" clip-path="url(#clipPath3)" stroke="none" xml:space="preserve">CPMnet.sink Throughput-total-succ - configname=Central2x4 a=15</text>
<line clip-path="url(#clipPath3)" fill="none" x1="43" x2="57" y1="58" y2="58" stroke="rgb(0,0,139)"/>
<rect x="47" y="55" clip-path="url(#clipPath3)" fill="rgb(0,0,139)" width="7" height="7" stroke="none"/>
<text font-size="8" x="59" y="62" clip-path="url(#clipPath3)" stroke="none" xml:space="preserve">CPMnet.sink Throughput-total-succ - configname=Central2x4 a=30</text>
<line clip-path="url(#clipPath3)" fill="none" x1="43" x2="57" y1="72" y2="72" stroke="green"/>
<line clip-path="url(#clipPath3)" fill="none" x1="47" x2="53" y1="69" y2="75" stroke="green"/>
<line clip-path="url(#clipPath3)" fill="none" x1="47" x2="53" y1="75" y2="69" stroke="green"/>
<text font-size="8" x="59" y="76" clip-path="url(#clipPath3)" stroke="none" xml:space="preserve">CPMnet.sink Throughput-total-succ - configname=Central_lmsg2x4 a=15</text>
<line clip-path="url(#clipPath3)" fill="none" x1="43" x2="57" y1="86" y2="86" stroke="rgb(169,169,169)"/>
</g>
<g font-size="8" stroke-linecap="butt" fill="rgb(169,169,169)" text-rendering="geometricPrecision" font-family="'Arial'" stroke="rgb(169,169,169)" stroke-width="2">
<line clip-path="url(#clipPath3)" fill="none" x1="46" x2="54" y1="86" y2="86"/>
<line clip-path="url(#clipPath3)" fill="none" x1="50" x2="50" y1="82" y2="90"/>
<text x="59" y="90" clip-path="url(#clipPath3)" fill="black" stroke="none" xml:space="preserve">CPMnet.sink Throughput-total-succ - configname=Central_lmsg2x4 a=30</text>
<line clip-path="url(#clipPath3)" fill="none" x1="43" x2="57" y1="100" y2="100" stroke="rgb(238,0,0)" stroke-width="1"/>
<circle clip-path="url(#clipPath3)" fill="rgb(238,0,0)" r="3" cx="50" cy="100" stroke="none" stroke-width="1"/>
<text x="59" y="104" clip-path="url(#clipPath3)" fill="black" stroke="none" stroke-width="1" xml:space="preserve">CPMnet.sink Throughput-total-succ - configname=Cpm_lmsg2x4 a=15</text>
<line clip-path="url(#clipPath3)" fill="none" x1="43" x2="57" y1="114" y2="114" stroke="teal" stroke-width="1"/>
<circle clip-path="url(#clipPath3)" fill="teal" r="3" cx="50" cy="114" stroke="none" stroke-width="1"/>
<text x="59" y="118" clip-path="url(#clipPath3)" fill="black" stroke="none" stroke-width="1" xml:space="preserve">CPMnet.sink Throughput-total-succ - configname=Cpm_lmsg2x4 a=30</text>
<line clip-path="url(#clipPath3)" fill="none" x1="43" x2="57" y1="128" y2="128" stroke="rgb(255,165,0)" stroke-width="1"/>
<polygon fill="rgb(255,165,0)" stroke-width="1" clip-path="url(#clipPath3)" points=" 46 128 50 124 54 128 50 132 46 128" stroke="none"/>
<text x="59" y="132" clip-path="url(#clipPath3)" fill="black" stroke="none" stroke-width="1" xml:space="preserve">CPMnet.sink Throughput-total-succ - configname=PreNoRepeat_lmsg2x4 a=15</text>
<line clip-path="url(#clipPath3)" fill="none" x1="43" x2="57" y1="142" y2="142" stroke="rgb(0,100,0)" stroke-width="1"/>
<polygon fill="rgb(0,100,0)" stroke-width="1" clip-path="url(#clipPath3)" points=" 50 137 55 145 45 145 50 137" stroke="none"/>
<text x="59" y="146" clip-path="url(#clipPath3)" fill="black" stroke="none" stroke-width="1" xml:space="preserve">CPMnet.sink Throughput-total-succ - configname=PreNoRepeat_lmsg2x4 a=30</text>
</g>
<g text-rendering="geometricPrecision" font-size="10" font-family="'Arial'" stroke-linecap="butt">
<line clip-path="url(#clipPath2)" fill="none" x1="32" x2="555" y1="28" y2="28"/>
<line clip-path="url(#clipPath2)" fill="none" x1="32" x2="555" y1="404" y2="404"/>
<text xml:space="preserve" x="284" y="431" clip-path="url(#clipPath2)" stroke="none">MPL</text>
<line clip-path="url(#clipPath2)" fill="none" x1="37" x2="37" y1="24" y2="28"/>
<line clip-path="url(#clipPath2)" fill="none" x1="37" x2="37" y1="408" y2="404"/>
<text font-size="8" x="32" y="22" clip-path="url(#clipPath2)" stroke="none" xml:space="preserve">1.0</text>
<text font-size="8" x="32" y="417" clip-path="url(#clipPath2)" stroke="none" xml:space="preserve">1.0</text>
<line clip-path="url(#clipPath2)" fill="none" x1="49" x2="49" y1="26" y2="28"/>
<line clip-path="url(#clipPath2)" fill="none" x1="49" x2="49" y1="406" y2="404"/>
<line clip-path="url(#clipPath2)" fill="none" x1="60" x2="60" y1="26" y2="28"/>
<line clip-path="url(#clipPath2)" fill="none" x1="60" x2="60" y1="406" y2="404"/>
<line clip-path="url(#clipPath2)" fill="none" x1="71" x2="71" y1="26" y2="28"/>
<line clip-path="url(#clipPath2)" fill="none" x1="71" x2="71" y1="406" y2="404"/>
<line clip-path="url(#clipPath2)" fill="none" x1="83" x2="83" y1="26" y2="28"/>
<line clip-path="url(#clipPath2)" fill="none" x1="83" x2="83" y1="406" y2="404"/>
<line clip-path="url(#clipPath2)" fill="none" x1="94" x2="94" y1="24" y2="28"/>
<line clip-path="url(#clipPath2)" fill="none" x1="94" x2="94" y1="408" y2="404"/>
<text font-size="8" x="89" y="22" clip-path="url(#clipPath2)" stroke="none" xml:space="preserve">2.0</text>
<text font-size="8" x="89" y="417" clip-path="url(#clipPath2)" stroke="none" xml:space="preserve">2.0</text>
<line clip-path="url(#clipPath2)" fill="none" x1="105" x2="105" y1="26" y2="28"/>
<line clip-path="url(#clipPath2)" fill="none" x1="105" x2="105" y1="406" y2="404"/>
<line clip-path="url(#clipPath2)" fill="none" x1="117" x2="117" y1="26" y2="28"/>
<line clip-path="url(#clipPath2)" fill="none" x1="117" x2="117" y1="406" y2="404"/>
<line clip-path="url(#clipPath2)" fill="none" x1="128" x2="128" y1="26" y2="28"/>
<line clip-path="url(#clipPath2)" fill="none" x1="128" x2="128" y1="406" y2="404"/>
<line clip-path="url(#clipPath2)" fill="none" x1="140" x2="140" y1="26" y2="28"/>
<line clip-path="url(#clipPath2)" fill="none" x1="140" x2="140" y1="406" y2="404"/>
<line clip-path="url(#clipPath2)" fill="none" x1="151" x2="151" y1="24" y2="28"/>
<line clip-path="url(#clipPath2)" fill="none" x1="151" x2="151" y1="408" y2="404"/>
<text font-size="8" x="146" y="22" clip-path="url(#clipPath2)" stroke="none" xml:space="preserve">3.0</text>
<text font-size="8" x="146" y="417" clip-path="url(#clipPath2)" stroke="none" xml:space="preserve">3.0</text>
<line clip-path="url(#clipPath2)" fill="none" x1="162" x2="162" y1="26" y2="28"/>
<line clip-path="url(#clipPath2)" fill="none" x1="162" x2="162" y1="406" y2="404"/>
<line clip-path="url(#clipPath2)" fill="none" x1="174" x2="174" y1="26" y2="28"/>
<line clip-path="url(#clipPath2)" fill="none" x1="174" x2="174" y1="406" y2="404"/>
<line clip-path="url(#clipPath2)" fill="none" x1="185" x2="185" y1="26" y2="28"/>
<line clip-path="url(#clipPath2)" fill="none" x1="185" x2="185" y1="406" y2="404"/>
<line clip-path="url(#clipPath2)" fill="none" x1="196" x2="196" y1="26" y2="28"/>
<line clip-path="url(#clipPath2)" fill="none" x1="196" x2="196" y1="406" y2="404"/>
<line clip-path="url(#clipPath2)" fill="none" x1="208" x2="208" y1="24" y2="28"/>
<line clip-path="url(#clipPath2)" fill="none" x1="208" x2="208" y1="408" y2="404"/>
<text font-size="8" x="203" y="22" clip-path="url(#clipPath2)" stroke="none" xml:space="preserve">4.0</text>
<text font-size="8" x="203" y="417" clip-path="url(#clipPath2)" stroke="none" xml:space="preserve">4.0</text>
<line clip-path="url(#clipPath2)" fill="none" x1="219" x2="219" y1="26" y2="28"/>
<line clip-path="url(#clipPath2)" fill="none" x1="219" x2="219" y1="406" y2="404"/>
<line clip-path="url(#clipPath2)" fill="none" x1="230" x2="230" y1="26" y2="28"/>
<line clip-path="url(#clipPath2)" fill="none" x1="230" x2="230" y1="406" y2="404"/>
<line clip-path="url(#clipPath2)" fill="none" x1="242" x2="242" y1="26" y2="28"/>
<line clip-path="url(#clipPath2)" fill="none" x1="242" x2="242" y1="406" y2="404"/>
<line clip-path="url(#clipPath2)" fill="none" x1="253" x2="253" y1="26" y2="28"/>
<line clip-path="url(#clipPath2)" fill="none" x1="253" x2="253" y1="406" y2="404"/>
<line clip-path="url(#clipPath2)" fill="none" x1="265" x2="265" y1="24" y2="28"/>
<line clip-path="url(#clipPath2)" fill="none" x1="265" x2="265" y1="408" y2="404"/>
<text font-size="8" x="260" y="22" clip-path="url(#clipPath2)" stroke="none" xml:space="preserve">5.0</text>
<text font-size="8" x="260" y="417" clip-path="url(#clipPath2)" stroke="none" xml:space="preserve">5.0</text>
<line clip-path="url(#clipPath2)" fill="none" x1="276" x2="276" y1="26" y2="28"/>
<line clip-path="url(#clipPath2)" fill="none" x1="276" x2="276" y1="406" y2="404"/>
<line clip-path="url(#clipPath2)" fill="none" x1="287" x2="287" y1="26" y2="28"/>
<line clip-path="url(#clipPath2)" fill="none" x1="287" x2="287" y1="406" y2="404"/>
<line clip-path="url(#clipPath2)" fill="none" x1="299" x2="299" y1="26" y2="28"/>
<line clip-path="url(#clipPath2)" fill="none" x1="299" x2="299" y1="406" y2="404"/>
<line clip-path="url(#clipPath2)" fill="none" x1="310" x2="310" y1="26" y2="28"/>
<line clip-path="url(#clipPath2)" fill="none" x1="310" x2="310" y1="406" y2="404"/>
<line clip-path="url(#clipPath2)" fill="none" x1="321" x2="321" y1="24" y2="28"/>
<line clip-path="url(#clipPath2)" fill="none" x1="321" x2="321" y1="408" y2="404"/>
<text font-size="8" x="316" y="22" clip-path="url(#clipPath2)" stroke="none" xml:space="preserve">6.0</text>
<text font-size="8" x="316" y="417" clip-path="url(#clipPath2)" stroke="none" xml:space="preserve">6.0</text>
<line clip-path="url(#clipPath2)" fill="none" x1="333" x2="333" y1="26" y2="28"/>
<line clip-path="url(#clipPath2)" fill="none" x1="333" x2="333" y1="406" y2="404"/>
<line clip-path="url(#clipPath2)" fill="none" x1="344" x2="344" y1="26" y2="28"/>
<line clip-path="url(#clipPath2)" fill="none" x1="344" x2="344" y1="406" y2="404"/>
<line clip-path="url(#clipPath2)" fill="none" x1="356" x2="356" y1="26" y2="28"/>
<line clip-path="url(#clipPath2)" fill="none" x1="356" x2="356" y1="406" y2="404"/>
<line clip-path="url(#clipPath2)" fill="none" x1="367" x2="367" y1="26" y2="28"/>
<line clip-path="url(#clipPath2)" fill="none" x1="367" x2="367" y1="406" y2="404"/>
<line clip-path="url(#clipPath2)" fill="none" x1="378" x2="378" y1="24" y2="28"/>
<line clip-path="url(#clipPath2)" fill="none" x1="378" x2="378" y1="408" y2="404"/>
<text font-size="8" x="373" y="22" clip-path="url(#clipPath2)" stroke="none" xml:space="preserve">7.0</text>
<text font-size="8" x="373" y="417" clip-path="url(#clipPath2)" stroke="none" xml:space="preserve">7.0</text>
<line clip-path="url(#clipPath2)" fill="none" x1="390" x2="390" y1="26" y2="28"/>
<line clip-path="url(#clipPath2)" fill="none" x1="390" x2="390" y1="406" y2="404"/>
<line clip-path="url(#clipPath2)" fill="none" x1="401" x2="401" y1="26" y2="28"/>
<line clip-path="url(#clipPath2)" fill="none" x1="401" x2="401" y1="406" y2="404"/>
<line clip-path="url(#clipPath2)" fill="none" x1="412" x2="412" y1="26" y2="28"/>
<line clip-path="url(#clipPath2)" fill="none" x1="412" x2="412" y1="406" y2="404"/>
<line clip-path="url(#clipPath2)" fill="none" x1="424" x2="424" y1="26" y2="28"/>
<line clip-path="url(#clipPath2)" fill="none" x1="424" x2="424" y1="406" y2="404"/>
<line clip-path="url(#clipPath2)" fill="none" x1="435" x2="435" y1="24" y2="28"/>
<line clip-path="url(#clipPath2)" fill="none" x1="435" x2="435" y1="408" y2="404"/>
<text font-size="8" x="430" y="22" clip-path="url(#clipPath2)" stroke="none" xml:space="preserve">8.0</text>
<text font-size="8" x="430" y="417" clip-path="url(#clipPath2)" stroke="none" xml:space="preserve">8.0</text>
<line clip-path="url(#clipPath2)" fill="none" x1="446" x2="446" y1="26" y2="28"/>
<line clip-path="url(#clipPath2)" fill="none" x1="446" x2="446" y1="406" y2="404"/>
<line clip-path="url(#clipPath2)" fill="none" x1="458" x2="458" y1="26" y2="28"/>
<line clip-path="url(#clipPath2)" fill="none" x1="458" x2="458" y1="406" y2="404"/>
<line clip-path="url(#clipPath2)" fill="none" x1="469" x2="469" y1="26" y2="28"/>
<line clip-path="url(#clipPath2)" fill="none" x1="469" x2="469" y1="406" y2="404"/>
<line clip-path="url(#clipPath2)" fill="none" x1="481" x2="481" y1="26" y2="28"/>
<line clip-path="url(#clipPath2)" fill="none" x1="481" x2="481" y1="406" y2="404"/>
<line clip-path="url(#clipPath2)" fill="none" x1="492" x2="492" y1="24" y2="28"/>
<line clip-path="url(#clipPath2)" fill="none" x1="492" x2="492" y1="408" y2="404"/>
<text font-size="8" x="487" y="22" clip-path="url(#clipPath2)" stroke="none" xml:space="preserve">9.0</text>
<text font-size="8" x="487" y="417" clip-path="url(#clipPath2)" stroke="none" xml:space="preserve">9.0</text>
<line clip-path="url(#clipPath2)" fill="none" x1="503" x2="503" y1="26" y2="28"/>
<line clip-path="url(#clipPath2)" fill="none" x1="503" x2="503" y1="406" y2="404"/>
<line clip-path="url(#clipPath2)" fill="none" x1="515" x2="515" y1="26" y2="28"/>
<line clip-path="url(#clipPath2)" fill="none" x1="515" x2="515" y1="406" y2="404"/>
<line clip-path="url(#clipPath2)" fill="none" x1="526" x2="526" y1="26" y2="28"/>
<line clip-path="url(#clipPath2)" fill="none" x1="526" x2="526" y1="406" y2="404"/>
<line clip-path="url(#clipPath2)" fill="none" x1="537" x2="537" y1="26" y2="28"/>
<line clip-path="url(#clipPath2)" fill="none" x1="537" x2="537" y1="406" y2="404"/>
<line clip-path="url(#clipPath2)" fill="none" x1="549" x2="549" y1="24" y2="28"/>
<line clip-path="url(#clipPath2)" fill="none" x1="549" x2="549" y1="408" y2="404"/>
<text font-size="8" x="542" y="22" clip-path="url(#clipPath2)" stroke="none" xml:space="preserve">10.0</text>
<text font-size="8" x="542" y="417" clip-path="url(#clipPath2)" stroke="none" xml:space="preserve">10.0</text>
<line clip-path="url(#clipPath2)" fill="none" x1="30" x2="30" y1="30" y2="402"/>
<line clip-path="url(#clipPath2)" fill="none" x1="557" x2="557" y1="30" y2="402"/>
<line clip-path="url(#clipPath2)" fill="none" x1="26" x2="30" y1="402" y2="402"/>
<line clip-path="url(#clipPath2)" fill="none" x1="561" x2="557" y1="402" y2="402"/>
<text font-size="8" x="21" y="406" clip-path="url(#clipPath2)" stroke="none" xml:space="preserve">0</text>
<text font-size="8" x="564" y="406" clip-path="url(#clipPath2)" stroke="none" xml:space="preserve">0</text>
<line clip-path="url(#clipPath2)" fill="none" x1="28" x2="30" y1="383" y2="383"/>
<line clip-path="url(#clipPath2)" fill="none" x1="559" x2="557" y1="383" y2="383"/>
<line clip-path="url(#clipPath2)" fill="none" x1="28" x2="30" y1="364" y2="364"/>
<line clip-path="url(#clipPath2)" fill="none" x1="559" x2="557" y1="364" y2="364"/>
<line clip-path="url(#clipPath2)" fill="none" x1="28" x2="30" y1="346" y2="346"/>
<line clip-path="url(#clipPath2)" fill="none" x1="559" x2="557" y1="346" y2="346"/>
<line clip-path="url(#clipPath2)" fill="none" x1="28" x2="30" y1="327" y2="327"/>
<line clip-path="url(#clipPath2)" fill="none" x1="559" x2="557" y1="327" y2="327"/>
<line clip-path="url(#clipPath2)" fill="none" x1="26" x2="30" y1="309" y2="309"/>
<line clip-path="url(#clipPath2)" fill="none" x1="561" x2="557" y1="309" y2="309"/>
<text font-size="8" x="21" y="313" clip-path="url(#clipPath2)" stroke="none" xml:space="preserve">5</text>
<text font-size="8" x="564" y="313" clip-path="url(#clipPath2)" stroke="none" xml:space="preserve">5</text>
<line clip-path="url(#clipPath2)" fill="none" x1="28" x2="30" y1="290" y2="290"/>
<line clip-path="url(#clipPath2)" fill="none" x1="559" x2="557" y1="290" y2="290"/>
<line clip-path="url(#clipPath2)" fill="none" x1="28" x2="30" y1="271" y2="271"/>
<line clip-path="url(#clipPath2)" fill="none" x1="559" x2="557" y1="271" y2="271"/>
<line clip-path="url(#clipPath2)" fill="none" x1="28" x2="30" y1="253" y2="253"/>
<line clip-path="url(#clipPath2)" fill="none" x1="559" x2="557" y1="253" y2="253"/>
<line clip-path="url(#clipPath2)" fill="none" x1="28" x2="30" y1="234" y2="234"/>
<line clip-path="url(#clipPath2)" fill="none" x1="559" x2="557" y1="234" y2="234"/>
<line clip-path="url(#clipPath2)" fill="none" x1="26" x2="30" y1="216" y2="216"/>
<line clip-path="url(#clipPath2)" fill="none" x1="561" x2="557" y1="216" y2="216"/>
<text font-size="8" x="17" y="220" clip-path="url(#clipPath2)" stroke="none" xml:space="preserve">10</text>
<text font-size="8" x="564" y="220" clip-path="url(#clipPath2)" stroke="none" xml:space="preserve">10</text>
<line clip-path="url(#clipPath2)" fill="none" x1="28" x2="30" y1="197" y2="197"/>
<line clip-path="url(#clipPath2)" fill="none" x1="559" x2="557" y1="197" y2="197"/>
<line clip-path="url(#clipPath2)" fill="none" x1="28" x2="30" y1="179" y2="179"/>
<line clip-path="url(#clipPath2)" fill="none" x1="559" x2="557" y1="179" y2="179"/>
<line clip-path="url(#clipPath2)" fill="none" x1="28" x2="30" y1="160" y2="160"/>
<line clip-path="url(#clipPath2)" fill="none" x1="559" x2="557" y1="160" y2="160"/>
<line clip-path="url(#clipPath2)" fill="none" x1="28" x2="30" y1="141" y2="141"/>
<line clip-path="url(#clipPath2)" fill="none" x1="559" x2="557" y1="141" y2="141"/>
<line clip-path="url(#clipPath2)" fill="none" x1="26" x2="30" y1="123" y2="123"/>
<line clip-path="url(#clipPath2)" fill="none" x1="561" x2="557" y1="123" y2="123"/>
<text font-size="8" x="17" y="127" clip-path="url(#clipPath2)" stroke="none" xml:space="preserve">15</text>
<text font-size="8" x="564" y="127" clip-path="url(#clipPath2)" stroke="none" xml:space="preserve">15</text>
<line clip-path="url(#clipPath2)" fill="none" x1="28" x2="30" y1="104" y2="104"/>
<line clip-path="url(#clipPath2)" fill="none" x1="559" x2="557" y1="104" y2="104"/>
<line clip-path="url(#clipPath2)" fill="none" x1="28" x2="30" y1="86" y2="86"/>
<line clip-path="url(#clipPath2)" fill="none" x1="559" x2="557" y1="86" y2="86"/>
<line clip-path="url(#clipPath2)" fill="none" x1="28" x2="30" y1="67" y2="67"/>
<line clip-path="url(#clipPath2)" fill="none" x1="559" x2="557" y1="67" y2="67"/>
<line clip-path="url(#clipPath2)" fill="none" x1="28" x2="30" y1="49" y2="49"/>
<line clip-path="url(#clipPath2)" fill="none" x1="559" x2="557" y1="49" y2="49"/>
<line clip-path="url(#clipPath2)" fill="none" x1="26" x2="30" y1="30" y2="30"/>
<line clip-path="url(#clipPath2)" fill="none" x1="561" x2="557" y1="30" y2="30"/>
<text font-size="8" x="17" y="34" clip-path="url(#clipPath2)" stroke="none" xml:space="preserve">20</text>
<text font-size="8" x="564" y="34" clip-path="url(#clipPath2)" stroke="none" xml:space="preserve">20</text>
</g>
</g>
</svg>
